<svg id="svg" version="1.1" xmlns="http://www.w3.org/2000/svg" xmlns:xlink="http://www.w3.org/1999/xlink" width="400" height="400" viewBox="0, 0, 400,400"><g id="svgg"><path id="path0" d="M133.030 57.167 C 132.628 57.611,132.410 58.327,132.513 58.867 C 132.680 59.744,132.694 59.737,132.746 58.749 C 132.805 57.606,133.354 56.996,134.600 56.689 C 135.370 56.500,135.368 56.491,134.562 56.446 C 134.101 56.421,133.412 56.745,133.030 57.167 M189.400 56.688 C 189.840 56.795,190.515 57.162,190.900 57.503 C 191.770 58.275,191.829 57.886,190.971 57.029 C 190.626 56.683,189.951 56.421,189.471 56.446 C 188.661 56.490,188.656 56.506,189.400 56.688 M191.794 114.200 C 191.795 145.000,191.842 157.541,191.900 142.069 C 191.958 126.597,191.958 101.397,191.900 86.069 C 191.842 70.741,191.794 83.400,191.794 114.200 M196.982 68.982 L 196.000 69.964 195.996 122.682 C 195.993 151.677,195.878 176.088,195.739 176.928 C 195.250 179.887,192.048 180.130,189.665 177.388 C 189.202 176.856,188.323 176.318,187.712 176.192 C 184.667 175.566,183.423 175.038,182.037 173.785 C 181.008 172.856,179.835 172.270,178.378 171.958 C 176.778 171.615,175.829 171.102,174.641 169.938 C 173.766 169.080,172.589 168.290,172.025 168.182 C 171.461 168.075,170.280 167.797,169.400 167.565 C 163.693 166.058,164.238 162.420,164.000 203.640 C 163.781 241.602,163.889 240.000,161.552 240.000 C 159.814 240.000,159.810 239.933,159.600 203.911 C 159.401 169.745,159.397 169.619,158.560 168.782 C 157.458 167.681,154.041 168.561,151.644 170.563 C 150.704 171.349,149.060 172.154,147.538 172.575 C 146.142 172.962,144.550 173.690,144.000 174.193 C 142.680 175.402,140.917 176.267,139.066 176.614 C 138.238 176.769,136.839 177.499,135.957 178.236 C 133.396 180.376,130.381 180.961,128.744 179.635 L 127.800 178.871 127.600 124.403 C 127.404 71.068,127.384 69.924,126.624 69.368 C 124.625 67.907,116.060 68.830,113.600 70.772 C 112.830 71.379,111.607 72.183,110.882 72.558 C 110.158 72.932,109.226 73.815,108.811 74.519 C 108.397 75.224,107.523 76.520,106.869 77.400 C 106.215 78.280,105.483 79.720,105.242 80.600 C 104.664 82.713,104.613 295.856,105.190 297.374 C 105.692 298.694,106.857 298.702,108.568 297.397 C 110.868 295.643,112.671 295.551,140.081 295.800 C 154.226 295.929,194.730 296.071,230.089 296.117 L 294.378 296.200 295.289 295.289 L 296.200 294.378 296.309 196.489 C 296.422 94.438,296.363 90.264,294.768 87.135 C 294.281 86.181,293.465 84.590,292.954 83.600 C 292.443 82.610,292.019 81.585,292.013 81.322 C 291.973 79.802,284.079 72.915,280.045 70.881 C 274.171 67.919,275.551 68.006,234.482 68.003 L 197.964 68.000 196.982 68.982 M270.511 69.608 C 272.008 69.824,274.248 70.517,275.511 71.155 C 276.770 71.790,278.787 72.603,279.994 72.961 C 282.126 73.594,282.998 74.248,286.517 77.848 C 287.351 78.702,288.563 79.940,289.210 80.600 C 289.879 81.283,290.800 83.007,291.347 84.600 C 291.875 86.140,292.824 88.382,293.454 89.583 L 294.600 91.766 294.705 192.737 C 294.782 267.552,294.692 293.848,294.356 294.253 C 293.623 295.137,166.152 295.062,164.889 294.177 C 163.698 293.343,163.507 275.859,164.651 272.361 C 165.157 270.813,165.238 269.644,165.014 267.086 C 164.681 263.282,164.682 262.426,165.024 255.337 C 165.228 251.128,165.151 249.634,164.639 247.876 C 163.850 245.161,163.833 242.697,164.588 240.600 C 165.073 239.255,165.168 233.532,165.182 204.744 C 165.203 165.511,164.938 168.320,168.534 169.225 C 169.590 169.491,171.179 170.314,172.065 171.054 C 172.950 171.794,174.693 172.693,175.938 173.052 C 177.222 173.423,178.812 174.254,179.617 174.976 C 180.504 175.773,182.000 176.518,183.617 176.971 C 185.284 177.437,186.723 178.166,187.676 179.024 C 189.982 181.103,194.530 181.648,196.139 180.039 L 197.000 179.178 197.200 124.757 C 197.396 71.468,197.416 70.324,198.176 69.768 C 199.122 69.077,265.818 68.929,270.511 69.608 M159.792 160.157 C 158.908 160.434,157.390 161.237,156.418 161.941 C 155.446 162.645,153.708 163.495,152.556 163.830 C 151.404 164.165,149.808 164.958,149.009 165.593 C 148.211 166.227,146.317 167.220,144.800 167.800 C 143.283 168.380,141.379 169.381,140.567 170.026 C 139.230 171.089,138.386 171.430,135.170 172.204 C 133.954 172.496,133.244 171.808,132.790 169.898 C 132.557 168.915,132.472 168.823,132.441 169.520 C 132.382 170.843,133.502 172.802,134.310 172.788 C 136.038 172.759,140.565 171.194,141.535 170.291 C 142.826 169.087,143.910 168.509,146.131 167.841 C 147.060 167.561,148.656 166.694,149.678 165.914 C 150.708 165.127,152.449 164.276,153.582 164.004 C 154.785 163.716,156.293 162.957,157.243 162.164 C 158.131 161.423,159.609 160.622,160.529 160.386 C 162.826 159.796,163.129 159.664,162.200 159.658 C 161.760 159.656,160.677 159.880,159.792 160.157 M164.600 160.755 C 165.480 161.161,166.588 161.949,167.061 162.505 C 167.626 163.168,168.649 163.673,170.032 163.969 C 172.393 164.476,174.356 165.556,175.087 166.751 C 175.414 167.285,176.203 167.634,177.487 167.812 C 179.854 168.141,182.681 169.430,183.213 170.424 C 183.581 171.111,188.178 172.800,189.681 172.800 C 190.424 172.800,191.609 171.528,191.573 170.769 C 191.558 170.445,191.363 170.578,191.122 171.077 C 190.257 172.868,186.502 172.225,183.583 169.786 C 182.151 168.589,179.893 167.609,178.554 167.602 C 178.309 167.601,177.049 166.877,175.754 165.993 C 174.459 165.109,172.531 164.124,171.469 163.805 C 170.407 163.486,168.451 162.499,167.123 161.612 C 165.795 160.726,164.324 160.004,163.854 160.009 C 163.243 160.015,163.455 160.227,164.600 160.755 M163.495 249.912 C 165.107 255.669,162.361 262.979,160.174 258.750 C 159.101 256.675,159.490 249.779,160.737 248.770 C 161.898 247.830,163.046 248.305,163.495 249.912 M163.211 265.221 C 163.827 266.372,163.679 270.109,162.977 271.111 C 161.421 273.333,159.360 271.034,159.704 267.459 C 159.993 264.455,162.086 263.119,163.211 265.221 M113.472 304.007 C 111.706 304.537,108.153 307.420,106.184 309.921 C 100.622 316.985,104.094 328.076,113.135 332.123 C 114.570 332.766,283.664 333.029,286.027 332.393 C 289.501 331.457,288.672 326.594,284.645 324.285 C 283.998 323.913,269.751 323.753,223.800 323.600 C 160.213 323.388,160.821 323.407,162.568 321.661 C 163.174 321.054,168.129 320.983,223.114 320.795 C 256.051 320.682,283.032 320.547,283.071 320.495 C 283.111 320.443,283.426 320.117,283.771 319.771 C 284.594 318.949,284.576 317.044,283.739 316.349 C 283.185 315.889,270.439 315.767,205.439 315.600 C 123.124 315.388,124.800 315.429,126.568 313.661 C 127.176 313.052,133.401 312.984,205.314 312.800 C 290.230 312.583,284.520 312.741,286.453 310.541 C 288.494 308.217,288.851 306.014,287.418 304.582 L 286.436 303.600 200.518 303.634 C 153.263 303.653,114.093 303.821,113.472 304.007 M286.841 305.064 C 288.005 306.227,287.659 307.416,285.448 309.858 L 283.690 311.800 205.345 312.000 C 162.255 312.110,126.680 312.356,126.289 312.547 C 125.377 312.992,124.776 314.113,125.136 314.697 C 125.921 315.967,127.935 316.000,204.737 316.000 C 289.003 316.000,283.600 315.849,283.600 318.209 C 283.600 320.034,284.769 319.999,223.926 320.024 C 165.468 320.048,162.289 320.117,161.361 321.386 C 159.405 324.060,158.002 324.000,222.410 324.000 C 286.683 324.000,283.081 323.881,285.278 326.078 C 287.846 328.646,288.171 330.629,286.173 331.539 C 284.786 332.171,116.935 332.200,114.661 331.568 C 107.873 329.683,102.540 320.312,104.711 314.085 C 106.061 310.212,112.060 304.942,115.740 304.398 C 116.873 304.231,155.640 304.117,201.889 304.147 L 285.978 304.200 286.841 305.064 " stroke="none" fill="#646cac" fill-rule="evenodd"></path><path id="path1" d="M199.073 71.060 C 198.923 71.210,198.799 95.378,198.798 124.767 C 198.795 181.219,198.814 180.648,196.907 181.898 C 194.498 183.476,187.134 182.484,184.420 180.216 C 183.519 179.464,182.471 178.758,182.091 178.648 C 181.711 178.538,180.648 178.253,179.729 178.016 C 178.809 177.779,177.311 176.961,176.399 176.199 C 175.486 175.437,173.852 174.549,172.766 174.227 C 170.620 173.590,168.400 172.414,168.400 171.914 C 168.400 171.175,167.196 171.681,167.006 172.500 C 166.892 172.995,166.715 188.880,166.614 207.800 C 166.513 226.720,166.420 243.010,166.408 244.000 C 166.396 244.990,166.398 251.650,166.414 258.800 C 166.429 265.950,166.324 276.469,166.180 282.175 C 165.936 291.865,165.966 292.586,166.636 293.075 C 167.644 293.813,292.383 293.857,293.120 293.120 C 293.755 292.485,293.804 99.979,293.170 97.200 C 292.944 96.210,292.331 94.770,291.807 94.000 C 291.283 93.230,290.637 91.430,290.371 90.000 C 289.484 85.236,289.177 84.404,287.803 83.029 C 287.052 82.279,286.168 81.019,285.838 80.230 C 285.468 79.343,284.820 78.636,284.144 78.379 C 283.541 78.150,282.277 77.251,281.333 76.381 C 280.390 75.511,279.543 74.800,279.452 74.800 C 277.609 74.800,270.788 72.938,269.494 72.082 L 267.859 71.000 233.603 70.893 C 214.762 70.835,199.223 70.910,199.073 71.060 " stroke="none" fill="#a4a4cc" fill-rule="evenodd"></path><path id="path2" d="M134.529 56.673 C 132.504 57.080,132.600 54.214,132.600 114.179 C 132.600 176.616,132.436 172.863,135.132 172.213 C 138.395 171.426,139.226 171.092,140.567 170.026 C 141.379 169.381,143.283 168.380,144.800 167.800 C 146.317 167.220,148.211 166.227,149.009 165.593 C 149.808 164.958,151.404 164.165,152.556 163.830 C 153.708 163.495,155.443 162.647,156.412 161.945 C 160.204 159.198,163.387 159.117,167.210 161.670 C 168.490 162.525,170.407 163.486,171.469 163.805 C 172.531 164.124,174.459 165.109,175.754 165.993 C 177.049 166.877,178.309 167.601,178.554 167.602 C 179.893 167.609,182.151 168.589,183.583 169.786 C 185.250 171.179,189.069 172.579,190.111 172.179 C 191.591 171.611,191.600 171.253,191.600 114.043 L 191.600 58.124 190.758 57.362 C 189.959 56.639,137.878 56.001,134.529 56.673 " stroke="none" fill="#fcbc7c" fill-rule="evenodd"></path><path id="path3" d="M126.494 49.215 C 125.282 49.702,124.800 51.128,124.800 54.226 L 124.800 56.800 116.900 56.802 C 107.786 56.805,106.753 57.010,104.132 59.333 C 103.070 60.275,101.372 61.355,100.359 61.733 C 98.598 62.391,97.600 63.571,97.600 64.996 C 97.600 65.302,96.699 66.583,95.598 67.841 C 94.497 69.099,93.415 70.800,93.194 71.621 C 92.535 74.068,92.860 330.178,93.524 332.111 C 93.924 333.273,94.408 333.779,95.622 334.305 C 96.751 334.794,97.200 335.231,97.200 335.840 C 97.200 337.144,98.636 338.680,100.114 338.957 C 101.157 339.153,101.545 339.493,101.925 340.544 C 103.045 343.639,94.281 343.387,204.737 343.506 C 272.519 343.578,303.357 343.481,304.438 343.190 C 308.607 342.067,309.031 331.652,305.025 328.775 C 304.060 328.082,303.194 327.220,303.099 326.858 C 303.004 326.496,302.403 325.954,301.763 325.654 C 301.123 325.353,300.331 324.974,300.001 324.811 C 297.955 323.798,298.540 311.762,300.670 311.034 C 301.369 310.795,302.749 309.790,303.737 308.800 C 304.726 307.810,305.887 306.677,306.318 306.282 C 306.749 305.887,307.211 304.897,307.346 304.082 C 307.765 301.549,307.631 86.129,307.208 82.400 C 306.816 78.936,305.814 77.200,304.206 77.200 C 303.858 77.200,303.490 76.360,303.198 74.900 C 302.564 71.726,301.701 70.113,300.391 69.657 C 299.629 69.391,299.138 68.823,298.809 67.829 C 298.342 66.413,296.778 65.200,295.420 65.200 C 295.079 65.200,294.800 64.866,294.800 64.458 C 294.800 63.257,293.025 61.677,291.343 61.381 C 287.213 60.655,287.032 60.584,286.805 59.621 C 286.146 56.828,289.175 57.013,241.971 56.888 L 199.600 56.776 199.600 54.575 C 199.600 52.020,198.812 49.848,197.660 49.232 C 196.642 48.687,127.849 48.670,126.494 49.215 M192.678 55.365 C 193.798 56.328,193.800 56.339,193.938 62.165 C 194.080 68.220,194.226 68.643,195.711 67.300 C 196.436 66.643,198.934 66.600,236.142 66.600 C 278.699 66.600,278.881 66.608,280.855 68.451 C 281.566 69.116,283.240 70.158,284.574 70.767 C 287.653 72.173,292.893 77.483,293.631 79.945 C 293.896 80.829,294.701 82.176,295.420 82.939 C 297.943 85.614,297.800 79.039,297.800 192.017 C 297.800 289.396,297.762 295.093,297.101 296.102 C 295.736 298.186,299.305 298.115,203.800 297.952 L 114.600 297.800 112.000 299.265 C 106.928 302.122,104.101 302.015,103.207 298.931 C 102.345 295.954,102.837 78.098,103.710 76.500 C 104.101 75.785,104.595 75.200,104.807 75.200 C 105.020 75.200,105.777 74.318,106.490 73.241 C 107.204 72.163,108.397 70.953,109.143 70.551 C 109.889 70.149,110.756 69.429,111.069 68.951 C 112.139 67.318,113.748 67.000,120.934 67.000 L 127.667 67.000 128.654 68.146 C 130.060 69.779,130.186 69.395,130.319 63.067 C 130.445 57.033,130.824 55.330,132.164 54.789 C 132.624 54.603,146.175 54.439,162.278 54.425 L 191.555 54.400 192.678 55.365 M161.227 163.149 C 160.663 164.203,160.734 166.657,161.378 168.400 L 161.896 169.800 162.591 167.449 C 163.561 164.170,162.489 160.791,161.227 163.149 M129.799 172.503 C 129.440 173.382,129.904 176.000,130.418 176.000 C 130.878 176.000,130.875 173.720,130.415 172.600 C 130.112 171.863,130.063 171.856,129.799 172.503 M288.245 302.685 C 291.967 304.820,289.899 312.200,285.047 314.097 C 284.853 314.173,284.988 314.803,285.347 315.498 C 286.159 317.067,286.191 319.594,285.413 320.624 C 284.542 321.775,284.638 321.959,286.534 322.772 C 289.619 324.094,291.192 330.169,289.085 332.619 L 288.069 333.800 200.135 333.800 C 128.265 333.800,111.927 333.703,110.707 333.271 C 108.621 332.532,103.734 327.681,103.011 325.630 C 100.949 319.786,102.210 309.375,105.219 307.400 C 105.889 306.960,106.807 306.011,107.258 305.290 C 108.257 303.693,109.693 302.911,112.481 302.444 C 115.961 301.861,287.218 302.096,288.245 302.685 " stroke="none" fill="#1d242d" fill-rule="evenodd"></path><path id="path4" d="M118.395 305.959 C 117.402 306.100,115.962 306.619,115.195 307.112 C 114.428 307.606,112.923 308.412,111.851 308.905 C 110.241 309.644,109.736 310.148,108.949 311.800 C 108.425 312.900,107.626 314.376,107.174 315.079 C 105.943 316.992,106.061 319.248,107.515 321.586 C 108.180 322.656,108.853 323.952,109.011 324.466 C 109.447 325.885,109.987 326.396,112.184 327.467 C 113.293 328.008,115.003 328.889,115.985 329.425 L 117.770 330.400 200.385 330.394 C 247.062 330.390,283.241 330.235,283.554 330.037 C 284.242 329.601,283.910 328.072,282.840 326.751 L 282.071 325.800 221.535 325.600 C 188.241 325.490,160.709 325.255,160.354 325.078 C 158.533 324.170,158.353 321.186,160.018 319.521 C 161.780 317.759,162.307 317.818,142.867 317.596 C 122.524 317.364,122.800 317.416,122.800 313.825 C 122.800 310.231,118.256 310.420,204.671 310.410 C 270.747 310.401,282.025 310.318,282.509 309.834 C 283.543 308.800,284.173 306.813,283.638 306.278 C 283.120 305.760,121.983 305.450,118.395 305.959 " stroke="none" fill="#fcfcec" fill-rule="evenodd"></path><path id="path5" d="M132.164 54.789 C 130.824 55.330,130.445 57.033,130.319 63.067 C 130.186 69.395,130.060 69.779,128.654 68.146 L 127.667 67.000 120.934 67.000 C 113.748 67.000,112.139 67.318,111.069 68.951 C 110.756 69.429,109.889 70.149,109.143 70.551 C 108.397 70.953,107.204 72.163,106.490 73.241 C 105.777 74.318,105.020 75.200,104.807 75.200 C 104.595 75.200,104.101 75.785,103.710 76.500 C 102.837 78.098,102.345 295.954,103.207 298.931 C 104.101 302.015,106.928 302.122,112.000 299.265 L 114.600 297.800 203.800 297.952 C 299.305 298.115,295.736 298.186,297.101 296.102 C 297.762 295.093,297.800 289.396,297.800 192.017 C 297.800 79.039,297.943 85.614,295.420 82.939 C 294.701 82.176,293.896 80.829,293.631 79.945 C 292.893 77.483,287.653 72.173,284.574 70.767 C 283.240 70.158,281.566 69.116,280.855 68.451 C 278.881 66.608,278.699 66.600,236.142 66.600 C 198.934 66.600,196.436 66.643,195.711 67.300 C 194.226 68.643,194.080 68.220,193.938 62.165 C 193.800 56.339,193.798 56.328,192.678 55.365 L 191.555 54.400 162.278 54.425 C 146.175 54.439,132.624 54.603,132.164 54.789 M190.971 57.028 C 192.030 58.088,192.027 57.842,191.912 115.258 C 191.789 176.396,191.929 172.800,189.681 172.800 C 188.178 172.800,183.581 171.111,183.213 170.424 C 182.681 169.430,179.854 168.141,177.487 167.812 C 176.203 167.634,175.414 167.285,175.087 166.751 C 174.363 165.568,172.399 164.477,170.105 163.985 C 168.716 163.687,167.631 163.122,166.688 162.206 C 163.909 159.508,160.441 159.492,157.243 162.164 C 156.293 162.957,154.785 163.716,153.582 164.004 C 152.449 164.276,150.708 165.127,149.678 165.914 C 148.656 166.694,147.060 167.561,146.131 167.841 C 143.910 168.509,142.826 169.087,141.535 170.291 C 140.565 171.194,136.038 172.759,134.310 172.788 C 132.344 172.822,132.400 174.545,132.400 114.151 C 132.400 62.336,132.453 57.805,133.062 57.131 C 134.011 56.083,189.926 55.983,190.971 57.028 M273.465 68.406 C 279.002 69.305,291.934 78.310,292.013 81.322 C 292.019 81.585,292.443 82.610,292.954 83.600 C 296.670 90.799,296.435 82.868,296.309 196.489 L 296.200 294.378 295.289 295.289 L 294.378 296.200 230.089 296.117 C 194.730 296.071,154.226 295.929,140.081 295.800 C 112.671 295.551,110.868 295.643,108.568 297.397 C 106.857 298.702,105.692 298.694,105.190 297.374 C 104.613 295.856,104.664 82.713,105.242 80.600 C 105.483 79.720,106.215 78.280,106.869 77.400 C 107.523 76.520,108.397 75.224,108.811 74.519 C 109.226 73.815,110.158 72.932,110.882 72.558 C 111.607 72.183,112.830 71.379,113.600 70.772 C 116.060 68.830,124.625 67.907,126.624 69.368 C 127.384 69.924,127.404 71.068,127.600 124.403 L 127.800 178.871 128.744 179.635 C 130.381 180.961,133.396 180.376,135.957 178.236 C 136.839 177.499,138.238 176.769,139.066 176.614 C 140.917 176.267,142.680 175.402,144.000 174.193 C 144.550 173.690,146.142 172.962,147.538 172.575 C 149.060 172.154,150.704 171.349,151.644 170.563 C 154.041 168.561,157.458 167.681,158.560 168.782 C 159.397 169.619,159.401 169.745,159.600 203.911 C 159.810 239.933,159.814 240.000,161.552 240.000 C 163.889 240.000,163.781 241.602,164.000 203.640 C 164.238 162.420,163.693 166.058,169.400 167.565 C 170.280 167.797,171.461 168.075,172.025 168.182 C 172.589 168.290,173.766 169.080,174.641 169.938 C 175.829 171.102,176.778 171.615,178.378 171.958 C 179.835 172.270,181.008 172.856,182.037 173.785 C 183.423 175.038,184.667 175.566,187.712 176.192 C 188.323 176.318,189.202 176.856,189.665 177.388 C 192.048 180.130,195.250 179.887,195.739 176.928 C 195.878 176.088,195.993 151.677,195.996 122.682 L 196.000 69.964 196.982 68.982 L 197.964 68.000 234.482 68.003 C 256.907 68.005,271.951 68.160,273.465 68.406 M162.937 163.880 C 163.184 164.742,163.083 165.786,162.591 167.449 L 161.896 169.800 161.378 168.400 C 160.415 165.794,160.881 162.094,162.121 162.507 C 162.378 162.593,162.745 163.211,162.937 163.880 M130.772 174.700 C 130.809 176.432,130.104 176.364,129.774 174.603 C 129.441 172.826,129.908 171.366,130.415 172.600 C 130.596 173.040,130.756 173.985,130.772 174.700 M160.737 248.770 C 158.692 250.425,159.383 260.000,161.548 260.000 C 163.186 260.000,163.790 258.565,163.795 254.663 C 163.803 248.958,162.827 247.079,160.737 248.770 M160.768 264.745 C 159.582 265.706,159.253 268.969,160.166 270.734 C 161.515 273.343,163.600 271.734,163.600 268.085 C 163.600 264.734,162.453 263.381,160.768 264.745 M112.481 302.444 C 109.693 302.911,108.257 303.693,107.258 305.290 C 106.807 306.011,105.889 306.960,105.219 307.400 C 102.210 309.375,100.949 319.786,103.011 325.630 C 103.734 327.681,108.621 332.532,110.707 333.271 C 111.927 333.703,128.265 333.800,200.135 333.800 L 288.069 333.800 289.085 332.619 C 291.192 330.169,289.619 324.094,286.534 322.772 C 284.638 321.959,284.542 321.775,285.413 320.624 C 286.191 319.594,286.159 317.067,285.347 315.498 C 284.988 314.803,284.853 314.173,285.047 314.097 C 289.899 312.200,291.967 304.820,288.245 302.685 C 287.218 302.096,115.961 301.861,112.481 302.444 M287.418 304.582 C 288.851 306.014,288.494 308.217,286.453 310.541 C 284.520 312.741,290.230 312.583,205.314 312.800 C 133.401 312.984,127.176 313.052,126.568 313.661 C 124.800 315.429,123.124 315.388,205.439 315.600 C 270.439 315.767,283.185 315.889,283.739 316.349 C 284.576 317.044,284.594 318.949,283.771 319.771 C 283.426 320.117,283.111 320.443,283.071 320.495 C 283.032 320.547,256.051 320.682,223.114 320.795 C 168.129 320.983,163.174 321.054,162.568 321.661 C 160.821 323.407,160.213 323.388,223.800 323.600 C 269.751 323.753,283.998 323.913,284.645 324.285 C 288.672 326.594,289.501 331.457,286.027 332.393 C 283.664 333.029,114.570 332.766,113.135 332.123 C 104.094 328.076,100.622 316.985,106.184 309.921 C 108.153 307.420,111.706 304.537,113.472 304.007 C 114.093 303.821,153.263 303.653,200.518 303.634 L 286.436 303.600 287.418 304.582 " stroke="none" fill="#3c444c" fill-rule="evenodd"></path><path id="path6" d="M198.176 69.768 C 197.416 70.324,197.396 71.468,197.200 124.757 L 197.000 179.178 196.139 180.039 C 194.530 181.648,189.982 181.103,187.676 179.024 C 186.723 178.166,185.284 177.437,183.617 176.971 C 182.000 176.518,180.504 175.773,179.617 174.976 C 178.812 174.254,177.222 173.423,175.938 173.052 C 174.693 172.693,172.950 171.794,172.065 171.054 C 171.179 170.314,169.590 169.491,168.534 169.225 C 164.938 168.320,165.203 165.511,165.182 204.744 C 165.168 233.532,165.073 239.255,164.588 240.600 C 163.833 242.697,163.850 245.161,164.639 247.876 C 165.151 249.634,165.228 251.128,165.024 255.337 C 164.682 262.426,164.681 263.282,165.014 267.086 C 165.238 269.644,165.157 270.813,164.651 272.361 C 163.507 275.859,163.698 293.343,164.889 294.177 C 166.152 295.062,293.623 295.137,294.356 294.253 C 294.692 293.848,294.782 267.552,294.705 192.737 L 294.600 91.766 293.454 89.583 C 292.824 88.382,291.875 86.140,291.347 84.600 C 290.800 83.007,289.879 81.283,289.210 80.600 C 288.563 79.940,287.351 78.702,286.517 77.848 C 282.998 74.248,282.126 73.594,279.994 72.961 C 278.787 72.603,276.770 71.790,275.511 71.155 C 274.248 70.517,272.008 69.824,270.511 69.608 C 265.818 68.929,199.122 69.077,198.176 69.768 M269.494 72.082 C 270.788 72.938,277.609 74.800,279.452 74.800 C 279.543 74.800,280.390 75.511,281.333 76.381 C 282.277 77.251,283.541 78.150,284.144 78.379 C 284.820 78.636,285.468 79.343,285.838 80.230 C 286.168 81.019,287.052 82.279,287.803 83.029 C 289.177 84.404,289.484 85.236,290.371 90.000 C 290.637 91.430,291.283 93.230,291.807 94.000 C 292.331 94.770,292.944 96.210,293.170 97.200 C 293.804 99.979,293.755 292.485,293.120 293.120 C 292.383 293.857,167.644 293.813,166.636 293.075 C 165.966 292.586,165.936 291.865,166.180 282.175 C 166.324 276.469,166.429 265.950,166.414 258.800 C 166.398 251.650,166.396 244.990,166.408 244.000 C 166.420 243.010,166.513 226.720,166.614 207.800 C 166.715 188.880,166.892 172.995,167.006 172.500 C 167.196 171.681,168.400 171.175,168.400 171.914 C 168.400 172.414,170.620 173.590,172.766 174.227 C 173.852 174.549,175.486 175.437,176.399 176.199 C 177.311 176.961,178.809 177.779,179.729 178.016 C 180.648 178.253,181.711 178.538,182.091 178.648 C 182.471 178.758,183.519 179.464,184.420 180.216 C 187.134 182.484,194.498 183.476,196.907 181.898 C 198.814 180.648,198.795 181.219,198.798 124.767 C 198.799 95.378,198.923 71.210,199.073 71.060 C 199.223 70.910,214.762 70.835,233.603 70.893 L 267.859 71.000 269.494 72.082 M115.740 304.398 C 112.060 304.942,106.061 310.212,104.711 314.085 C 102.540 320.312,107.873 329.683,114.661 331.568 C 116.935 332.200,284.786 332.171,286.173 331.539 C 288.171 330.629,287.846 328.646,285.278 326.078 C 283.081 323.881,286.683 324.000,222.410 324.000 C 158.002 324.000,159.405 324.060,161.361 321.386 C 162.289 320.117,165.468 320.048,223.926 320.024 C 284.769 319.999,283.600 320.034,283.600 318.209 C 283.600 315.849,289.003 316.000,204.737 316.000 C 127.935 316.000,125.921 315.967,125.136 314.697 C 124.776 314.113,125.377 312.992,126.289 312.547 C 126.680 312.356,162.255 312.110,205.345 312.000 L 283.690 311.800 285.448 309.858 C 287.659 307.416,288.005 306.227,286.841 305.064 L 285.978 304.200 201.889 304.147 C 155.640 304.117,116.873 304.231,115.740 304.398 M286.253 305.682 C 287.007 306.435,286.019 308.315,283.750 310.447 L 282.736 311.400 204.132 311.600 L 125.529 311.800 124.765 312.744 C 123.167 314.717,124.427 316.163,128.075 316.545 C 129.418 316.685,164.496 316.800,206.026 316.800 C 283.782 316.800,282.800 316.784,282.800 318.029 C 282.800 319.601,282.837 319.600,222.052 319.600 C 185.538 319.600,162.468 319.746,161.850 319.981 C 160.673 320.429,159.865 321.745,160.173 322.716 C 160.798 324.683,157.867 324.586,222.744 324.800 L 283.288 325.000 284.473 326.400 C 287.481 329.954,287.201 330.974,283.104 331.389 C 276.293 332.078,115.836 331.418,114.400 330.695 C 108.034 327.488,104.323 321.790,105.046 316.334 C 105.563 312.440,111.402 306.128,115.369 305.175 C 118.339 304.461,285.528 304.957,286.253 305.682 " stroke="none" fill="#9c9cc4" fill-rule="evenodd"></path><path id="path7" d="M115.369 305.175 C 111.402 306.128,105.563 312.440,105.046 316.334 C 104.323 321.790,108.034 327.488,114.400 330.695 C 115.836 331.418,276.293 332.078,283.104 331.389 C 287.201 330.974,287.481 329.954,284.473 326.400 L 283.288 325.000 222.744 324.800 C 157.867 324.586,160.798 324.683,160.173 322.716 C 159.865 321.745,160.673 320.429,161.850 319.981 C 162.468 319.746,185.538 319.600,222.052 319.600 C 282.837 319.600,282.800 319.601,282.800 318.029 C 282.800 316.784,283.782 316.800,206.026 316.800 C 164.496 316.800,129.418 316.685,128.075 316.545 C 124.427 316.163,123.167 314.717,124.765 312.744 L 125.529 311.800 204.132 311.600 L 282.736 311.400 283.750 310.447 C 286.019 308.315,287.007 306.435,286.253 305.682 C 285.528 304.957,118.339 304.461,115.369 305.175 M283.638 306.278 C 284.173 306.813,283.543 308.800,282.509 309.834 C 282.025 310.318,270.747 310.401,204.671 310.410 C 118.256 310.420,122.800 310.231,122.800 313.825 C 122.800 317.416,122.524 317.364,142.867 317.596 C 162.307 317.818,161.780 317.759,160.018 319.521 C 158.353 321.186,158.533 324.170,160.354 325.078 C 160.709 325.255,188.241 325.490,221.535 325.600 L 282.071 325.800 282.840 326.751 C 283.910 328.072,284.242 329.601,283.554 330.037 C 283.241 330.235,247.062 330.390,200.385 330.394 L 117.770 330.400 115.985 329.425 C 115.003 328.889,113.293 328.008,112.184 327.467 C 109.987 326.396,109.447 325.885,109.011 324.466 C 108.853 323.952,108.180 322.656,107.515 321.586 C 106.061 319.248,105.943 316.992,107.174 315.079 C 107.626 314.376,108.425 312.900,108.949 311.800 C 109.736 310.148,110.241 309.644,111.851 308.905 C 112.923 308.412,114.428 307.606,115.195 307.112 C 115.962 306.619,117.402 306.100,118.395 305.959 C 121.983 305.450,283.120 305.760,283.638 306.278 " stroke="none" fill="#bcd0b8" fill-rule="evenodd"></path><path id="path8" d="" stroke="none" fill="#80d0e0" fill-rule="evenodd"></path></g></svg>