<?xml version="1.0" encoding="UTF-8"?>
<svg width="400" height="390.04" version="1.1" viewBox="0, 0, 400,390.0414937759336" xmlns="http://www.w3.org/2000/svg">
<g fill="#18BC9C" fill-rule="evenodd">
<path d="m199.8 26.537c0 0.214-0.307 0.395-0.683 0.402-0.843 0.016-2.049 0.895-2.049 1.494 0 0.245-0.351 0.445-0.78 0.445-0.43 0-0.781 0.176-0.781 0.39 0 0.215-0.312 0.391-0.694 0.391s-0.948 0.351-1.257 0.78-0.963 0.781-1.452 0.781-0.889 0.175-0.889 0.39c0 0.214-0.352 0.39-0.781 0.39s-0.78 0.176-0.78 0.39c0 0.215-0.313 0.39-0.695 0.39s-0.947 0.352-1.257 0.781c-0.309 0.429-0.88 0.78-1.269 0.78-0.388 0-0.807 0.264-0.931 0.586s-0.557 0.585-0.963 0.585c-0.407 0-0.739 0.176-0.739 0.39 0 0.215-0.313 0.391-0.694 0.391-0.382 0-0.948 0.351-1.257 0.78-0.31 0.429-0.875 0.781-1.257 0.781s-0.695 0.175-0.695 0.39-0.439 0.39-0.975 0.39c-0.537 0-0.976 0.176-0.976 0.39 0 0.215-0.312 0.391-0.694 0.391s-0.948 0.351-1.257 0.78-0.875 0.781-1.257 0.781-0.694 0.263-0.694 0.585c0 0.364-0.369 0.585-0.976 0.585-0.536 0-0.975 0.176-0.975 0.391 0 0.214-0.313 0.39-0.695 0.39s-0.947 0.351-1.257 0.78c-0.309 0.43-0.875 0.781-1.257 0.781-0.381 0-0.694 0.175-0.694 0.39s-0.351 0.39-0.78 0.39c-0.43 0-0.781 0.176-0.781 0.391 0 0.214-0.263 0.39-0.585 0.39s-0.586 0.175-0.586 0.39-0.351 0.39-0.78 0.39-0.781 0.176-0.781 0.391c0 0.214-0.268 0.39-0.597 0.39s-0.699 0.263-0.822 0.585c-0.124 0.322-0.557 0.585-0.964 0.585-0.406 0-0.739 0.176-0.739 0.391 0 0.214-0.263 0.39-0.585 0.39s-0.585 0.176-0.585 0.39c0 0.215-0.351 0.39-0.781 0.39-0.429 0-0.78 0.176-0.78 0.391 0 0.214-0.351 0.39-0.781 0.39-0.429 0-0.78 0.176-0.78 0.39 0 0.215-0.313 0.39-0.695 0.39-0.381 0-0.947 0.352-1.256 0.781-0.31 0.429-0.963 0.78-1.452 0.78-0.49 0-0.89 0.176-0.89 0.391 0 0.214-0.269 0.39-0.597 0.39-0.329 0-0.699 0.263-0.823 0.585-0.123 0.322-0.518 0.586-0.877 0.586s-0.906 0.351-1.215 0.78-0.963 0.781-1.452 0.781-0.89 0.175-0.89 0.39c0 0.214-0.351 0.39-0.78 0.39s-0.781 0.176-0.781 0.39c0 0.215-0.312 0.391-0.694 0.391s-0.947 0.351-1.257 0.78c-0.309 0.429-0.875 0.781-1.257 0.781-0.381 0-0.694 0.263-0.694 0.585 0 0.349-0.359 0.585-0.889 0.585-0.49 0-1.143 0.352-1.452 0.781-0.31 0.429-0.875 0.78-1.257 0.78s-0.695 0.176-0.695 0.391c0 0.214-0.351 0.39-0.78 0.39s-0.781 0.175-0.781 0.39-0.318 0.39-0.707 0.39c-0.388 0-1.083 0.351-1.544 0.781-0.461 0.429-1.109 0.78-1.44 0.78s-0.601 0.176-0.601 0.39c0 0.215-0.269 0.391-0.598 0.391s-0.699 0.263-0.822 0.585c-0.124 0.322-0.557 0.585-0.964 0.585-0.406 0-0.738 0.176-0.738 0.391 0 0.214-0.264 0.39-0.586 0.39s-0.585 0.176-0.585 0.39c0 0.215-0.351 0.39-0.78 0.39-0.43 0-0.781 0.176-0.781 0.391 0 0.214-0.312 0.39-0.694 0.39s-0.948 0.351-1.257 0.78c-0.31 0.43-0.875 0.781-1.257 0.781s-0.694 0.175-0.694 0.39-0.308 0.396-0.683 0.403c-0.844 0.015-2.049 0.894-2.049 1.494 0 0.244-0.351 0.445-0.781 0.445-0.429 0-0.78 0.175-0.78 0.39 0 0.214-0.351 0.39-0.781 0.39-0.429 0-0.78 0.176-0.78 0.39 0 0.215-0.318 0.391-0.707 0.391s-1.084 0.351-1.545 0.78c-0.46 0.429-1.108 0.781-1.439 0.781s-0.602 0.175-0.602 0.39c0 0.214-0.351 0.39-0.78 0.39s-0.781 0.176-0.781 0.39c0 0.215-0.287 0.391-0.638 0.391s-1.045 0.439-1.542 0.975c-0.498 0.537-1.176 0.976-1.508 0.976-0.333 0-0.604 0.175-0.604 0.39s-0.352 0.39-0.781 0.39-0.78 0.176-0.78 0.39c0 0.215-0.313 0.391-0.695 0.391s-0.947 0.351-1.257 0.78c-0.309 0.429-0.962 0.781-1.452 0.781-0.489 0-0.889 0.175-0.889 0.39s-0.351 0.39-0.781 0.39c-0.429 0-0.78 0.176-0.78 0.39 0 0.215-0.276 0.391-0.613 0.391-0.701 0-1.728 0.911-1.728 1.533 0 0.23-0.44 0.418-0.976 0.418-0.537 0-0.976 0.175-0.976 0.39s-0.312 0.39-0.694 0.39-0.948 0.352-1.257 0.781-0.875 0.78-1.257 0.78-0.694 0.176-0.694 0.391c0 0.214-0.247 0.39-0.549 0.39-0.738 0-3.744 1.624-3.744 2.023 0 0.175-0.351 0.318-0.78 0.318-0.434 0-0.781 0.26-0.781 0.586 0 0.325-0.347 0.585-0.78 0.585-0.43 0-0.781 0.176-0.781 0.39 0 0.215-0.4 0.391-0.889 0.391s-1.143 0.351-1.452 0.78c-0.31 0.429-0.875 0.78-1.257 0.78s-0.694 0.176-0.694 0.391c0 0.214-0.313 0.39-0.695 0.39s-0.947 0.351-1.257 0.78c-0.309 0.43-0.88 0.781-1.269 0.781-0.388 0-0.807 0.263-0.931 0.585s-0.557 0.586-0.963 0.586c-0.407 0-0.739 0.175-0.739 0.39s-0.313 0.39-0.694 0.39c-0.382 0-0.948 0.351-1.257 0.781-0.31 0.429-0.963 0.78-1.452 0.78-0.49 0-0.89 0.176-0.89 0.39 0 0.215-0.351 0.391-0.78 0.391-0.43 0-0.781 0.175-0.781 0.39s-0.312 0.39-0.694 0.39-0.948 0.351-1.257 0.781c-0.309 0.429-0.875 0.78-1.257 0.78s-0.694 0.264-0.694 0.585c0 0.365-0.369 0.586-0.977 0.586h-0.976l0.098 82.049 0.099 82.048 0.878 0.125c0.483 0.069 0.878 0.288 0.878 0.488s0.312 0.363 0.694 0.363 0.948 0.351 1.257 0.78c0.309 0.43 0.875 0.781 1.257 0.781s0.694 0.176 0.694 0.39c0 0.215 0.351 0.39 0.781 0.39 0.429 0 0.78 0.176 0.78 0.391 0 0.214 0.398 0.39 0.883 0.39 0.486 0 1.212 0.438 1.616 0.976 0.403 0.536 0.971 0.975 1.263 0.975s0.531 0.176 0.531 0.39c0 0.215 0.351 0.391 0.78 0.391 0.43 0 0.781 0.175 0.781 0.39s0.4 0.39 0.889 0.39c0.49 0 1.143 0.351 1.452 0.781 0.31 0.429 0.875 0.78 1.257 0.78s0.695 0.176 0.695 0.39c0 0.215 0.312 0.391 0.694 0.391s0.947 0.351 1.257 0.78c0.309 0.429 0.963 0.781 1.452 0.781 0.53 0 0.889 0.236 0.889 0.585 0 0.325 0.347 0.585 0.781 0.585 0.429 0 0.78 0.176 0.78 0.391 0 0.214 0.313 0.39 0.695 0.39 0.381 0 0.947 0.351 1.256 0.78 0.31 0.43 0.865 0.781 1.234 0.781s0.78 0.175 0.913 0.39c0.132 0.215 0.582 0.39 0.998 0.39 0.417 0 0.758 0.176 0.758 0.391 0 0.214 0.312 0.39 0.694 0.39s0.948 0.351 1.257 0.78c0.309 0.43 0.856 0.781 1.215 0.781s0.754 0.263 0.877 0.585c0.124 0.322 0.543 0.585 0.932 0.585 0.388 0 0.959 0.352 1.269 0.781 0.309 0.429 0.875 0.78 1.257 0.78s0.694 0.176 0.694 0.391c0 0.214 0.351 0.39 0.78 0.39 0.43 0 0.781 0.176 0.781 0.39 0 0.215 0.4 0.39 0.889 0.39 0.49 0 1.143 0.352 1.452 0.781 0.31 0.429 0.857 0.78 1.216 0.78 0.358 0 0.753 0.264 0.877 0.586 0.123 0.322 0.493 0.585 0.822 0.585s0.598 0.176 0.598 0.39c0 0.215 0.351 0.391 0.78 0.391s0.781 0.175 0.781 0.39c0 0.214 0.263 0.39 0.585 0.39s0.585 0.176 0.585 0.39c0 0.215 0.352 0.391 0.781 0.391s0.78 0.175 0.78 0.39c0 0.214 0.352 0.39 0.781 0.39s0.78 0.176 0.78 0.39c0 0.215 0.313 0.391 0.695 0.391 0.381 0 0.947 0.351 1.256 0.78 0.31 0.429 0.963 0.781 1.452 0.781 0.531 0 0.89 0.236 0.89 0.585 0 0.325 0.347 0.585 0.78 0.585 0.43 0 0.781 0.176 0.781 0.391 0 0.214 0.312 0.39 0.694 0.39s0.948 0.351 1.257 0.78c0.31 0.43 0.963 0.781 1.452 0.781s0.89 0.175 0.89 0.39 0.312 0.39 0.694 0.39 0.947 0.351 1.257 0.781c0.309 0.429 0.875 0.78 1.257 0.78s0.694 0.176 0.694 0.39c0 0.215 0.272 0.391 0.604 0.391s1.011 0.439 1.508 0.975c0.498 0.537 1.192 0.976 1.543 0.976s0.638 0.176 0.638 0.39c0 0.215 0.351 0.39 0.78 0.39s0.781 0.176 0.781 0.391c0 0.214 0.27 0.39 0.601 0.39s0.979 0.351 1.44 0.78c0.461 0.43 1.156 0.781 1.544 0.781 0.389 0 0.707 0.175 0.707 0.39s0.352 0.39 0.781 0.39 0.78 0.176 0.78 0.391c0 0.214 0.352 0.39 0.781 0.39s0.78 0.2 0.78 0.445c0 0.599 1.206 1.478 2.049 1.494 0.376 6e-3 0.683 0.188 0.683 0.402 0 0.215 0.351 0.391 0.781 0.391 0.429 0 0.78 0.175 0.78 0.39 0 0.214 0.312 0.39 0.694 0.39s0.948 0.351 1.257 0.781c0.31 0.429 0.875 0.78 1.257 0.78s0.694 0.176 0.694 0.39c0 0.215 0.398 0.39 0.883 0.39 0.486 0 1.189 0.407 1.561 0.903 0.373 0.497 1.293 1.144 2.044 1.439s1.366 0.679 1.366 0.853c0 0.175 0.4 0.318 0.89 0.318 0.489 0 1.142 0.351 1.452 0.78 0.309 0.429 0.875 0.781 1.256 0.781 0.382 0 0.695 0.175 0.695 0.39s0.351 0.39 0.78 0.39c0.43 0 0.781 0.176 0.781 0.39 0 0.215 0.351 0.391 0.78 0.391 0.43 0 0.781 0.175 0.781 0.39s0.263 0.39 0.585 0.39 0.585 0.264 0.585 0.585c0 0.326 0.347 0.586 0.781 0.586 0.429 0 0.78 0.175 0.78 0.39s0.352 0.39 0.781 0.39 0.78 0.176 0.78 0.391c0 0.214 0.352 0.39 0.781 0.39s0.78 0.175 0.78 0.39 0.264 0.39 0.586 0.39 0.585 0.176 0.585 0.391c0 0.214 0.351 0.39 0.781 0.39 0.429 0 0.78 0.175 0.78 0.39s0.313 0.39 0.694 0.39c0.382 0 0.953 0.36 1.269 0.8 0.611 0.851 2.494 1.932 3.365 1.932 0.289 0 0.526 0.176 0.526 0.39 0 0.215 0.312 0.39 0.694 0.39s0.948 0.352 1.257 0.781 0.875 0.78 1.257 0.78 0.694 0.176 0.694 0.391c0 0.214 0.439 0.39 0.976 0.39 0.536 0 0.975 0.176 0.975 0.39 0 0.215 0.31 0.39 0.688 0.39 0.379 0 0.993 0.407 1.366 0.903 0.373 0.497 1.293 1.144 2.044 1.439s1.366 0.679 1.366 0.853c0 0.175 0.4 0.318 0.889 0.318 0.49 0 1.143 0.351 1.452 0.78 0.31 0.429 0.875 0.781 1.257 0.781s0.695 0.175 0.695 0.39c0 0.214 0.351 0.39 0.78 0.39s0.781 0.176 0.781 0.39c0 0.215 0.363 0.391 0.808 0.391 0.864 0 1.923 0.844 1.923 1.533 0 0.23 0.351 0.418 0.781 0.418 0.429 0 0.78 0.175 0.78 0.39s0.287 0.39 0.637 0.39c0.351 0 0.96 0.372 1.355 0.827 0.424 0.49 0.966 0.731 1.328 0.592 0.355-0.136 0.706 9e-3 0.834 0.344 0.247 0.643 2.48 0.813 2.48 0.189 0-0.215 0.313-0.391 0.695-0.391s0.947-0.351 1.257-0.78c0.309-0.429 0.875-0.781 1.256-0.781 0.382 0 0.695-0.175 0.695-0.39s0.326-0.39 0.726-0.39c0.399 0 1.055-0.439 1.458-0.976 0.403-0.536 1.042-0.975 1.421-0.975 0.378 0 0.687-0.176 0.687-0.391 0-0.214 0.352-0.39 0.781-0.39s0.78-0.176 0.78-0.39c0-0.215 0.319-0.39 0.707-0.39 0.389 0 1.084-0.352 1.545-0.781s1.109-0.78 1.439-0.78c0.331 0 0.602-0.176 0.602-0.391 0-0.214 0.351-0.39 0.781-0.39 0.429 0 0.78-0.175 0.78-0.39s0.351-0.39 0.781-0.39c0.433 0 0.78-0.261 0.78-0.586 0-0.322 0.263-0.585 0.585-0.585s0.586-0.176 0.586-0.39c0-0.215 0.351-0.391 0.78-0.391 0.43 0 0.781-0.175 0.781-0.39 0-0.214 0.351-0.39 0.78-0.39 0.43 0 0.781-0.176 0.781-0.39 0-0.215 0.312-0.391 0.694-0.391s0.948-0.351 1.257-0.78 0.963-0.781 1.452-0.781 0.889-0.175 0.889-0.39c0-0.214 0.276-0.39 0.614-0.39 0.701 0 1.728-0.911 1.728-1.533 0-0.23 0.351-0.418 0.78-0.418 0.43 0 0.781-0.176 0.781-0.39 0-0.215 0.341-0.391 0.757-0.391 0.417 0 0.866-0.175 0.999-0.39s0.543-0.39 0.912-0.39c0.37 0 0.925-0.351 1.234-0.781 0.31-0.429 0.875-0.78 1.257-0.78s0.695-0.176 0.695-0.39c0-0.215 0.236-0.391 0.525-0.391 0.871 0 2.754-1.081 3.366-1.932 0.315-0.44 0.886-0.799 1.268-0.799s0.694-0.176 0.694-0.391c0-0.214 0.351-0.39 0.781-0.39 0.429 0 0.78-0.175 0.78-0.39s0.264-0.39 0.586-0.39c0.321 0 0.585-0.176 0.585-0.391 0-0.214 0.351-0.39 0.78-0.39 0.43 0 0.781-0.175 0.781-0.39s0.351-0.39 0.78-0.39c0.43 0 0.781-0.176 0.781-0.391 0-0.214 0.276-0.39 0.613-0.39 0.701 0 1.728-0.911 1.728-1.533 0-0.23 0.439-0.418 0.976-0.418s0.976-0.176 0.976-0.39c0-0.215 0.351-0.391 0.78-0.391s0.781-0.175 0.781-0.39c0-0.214 0.312-0.39 0.694-0.39s0.947-0.351 1.257-0.78c0.309-0.43 0.963-0.781 1.452-0.781s0.889-0.176 0.889-0.39c0-0.215 0.351-0.39 0.781-0.39 0.429 0 0.78-0.176 0.78-0.391 0-0.214 0.276-0.39 0.613-0.39 0.701 0 1.729-0.911 1.729-1.533 0-0.23 0.351-0.418 0.78-0.418s0.781-0.176 0.781-0.39c0-0.215 0.4-0.391 0.889-0.391s1.143-0.351 1.452-0.78 0.875-0.781 1.257-0.781 0.694-0.175 0.694-0.39 0.352-0.39 0.781-0.39 0.78-0.176 0.78-0.39c0-0.215 0.318-0.391 0.707-0.391s1.084-0.351 1.545-0.78 1.108-0.781 1.439-0.781 0.602-0.263 0.602-0.585c0-0.325 0.347-0.585 0.78-0.585 0.43 0 0.781-0.176 0.781-0.391 0-0.214 0.351-0.39 0.78-0.39 0.43 0 0.781-0.175 0.781-0.39s0.263-0.39 0.585-0.39 0.586-0.176 0.586-0.391c0-0.214 0.351-0.39 0.78-0.39s0.781-0.175 0.781-0.39 0.312-0.39 0.694-0.39 0.947-0.351 1.257-0.781c0.309-0.429 0.875-0.78 1.257-0.78s0.694-0.176 0.694-0.39c0-0.215 0.357-0.391 0.793-0.391s0.894-0.263 1.017-0.585c0.124-0.322 0.518-0.585 0.877-0.585s0.906-0.352 1.215-0.781c0.31-0.429 0.875-0.78 1.257-0.78s0.695-0.176 0.695-0.391c0-0.214 0.341-0.39 0.757-0.39 0.417 0 0.866-0.176 0.999-0.39 0.132-0.215 0.543-0.39 0.912-0.39 0.37 0 0.925-0.352 1.234-0.781 0.31-0.429 0.875-0.78 1.257-0.78s0.694-0.176 0.694-0.391c0-0.214 0.352-0.39 0.781-0.39 0.433 0 0.78-0.26 0.78-0.585 0-0.349 0.359-0.586 0.89-0.586 0.489 0 1.142-0.351 1.452-0.78 0.309-0.429 0.875-0.781 1.257-0.781s0.694-0.175 0.694-0.39c0-0.214 0.351-0.39 0.781-0.39 0.429 0 0.78-0.176 0.78-0.39 0-0.215 0.263-0.391 0.585-0.391s0.586-0.175 0.586-0.39c0-0.214 0.351-0.39 0.78-0.39s0.781-0.176 0.781-0.39c0-0.215 0.269-0.391 0.597-0.391 0.329 0 0.699-0.263 0.823-0.585 0.123-0.322 0.518-0.585 0.877-0.585s0.906-0.351 1.215-0.781c0.309-0.429 0.963-0.78 1.452-0.78s0.889-0.176 0.889-0.39c0-0.215 0.352-0.391 0.781-0.391s0.78-0.175 0.78-0.39 0.313-0.39 0.695-0.39 0.947-0.351 1.257-0.781c0.309-0.429 0.76-0.78 1.001-0.78 0.797 0 2.696-1.119 3.28-1.933 0.316-0.439 0.886-0.799 1.268-0.799s0.694-0.176 0.694-0.39c0-0.215 0.352-0.39 0.781-0.39s0.78-0.176 0.78-0.391c0-0.214 0.401-0.39 0.89-0.39s1.143-0.351 1.452-0.78c0.309-0.43 0.875-0.781 1.257-0.781s0.694-0.175 0.694-0.39 0.351-0.39 0.781-0.39c0.429 0 0.78-0.176 0.78-0.391 0-0.214 0.327-0.39 0.726-0.39s1.055-0.439 1.458-0.975c0.403-0.537 1.043-0.976 1.421-0.976s0.688-0.176 0.688-0.39c0-0.215 0.351-0.391 0.78-0.391 0.43 0 0.781-0.175 0.781-0.39 0-0.214 0.351-0.39 0.78-0.39 0.43 0 0.781-0.176 0.781-0.39 0-0.215 0.263-0.391 0.585-0.391s0.585-0.175 0.585-0.39c0-0.214 0.352-0.39 0.781-0.39s0.78-0.176 0.78-0.39c0-0.215 0.352-0.39 0.781-0.39 0.778 0 0.78-0.261 0.78-82.147s-2e-3 -82.146-0.78-82.146c-0.434 0-0.781-0.26-0.781-0.586 0-0.325-0.346-0.585-0.78-0.585-0.429 0-0.781-0.176-0.781-0.39 0-0.215-0.263-0.39-0.585-0.39s-0.585-0.176-0.585-0.391c0-0.214-0.351-0.39-0.781-0.39-0.429 0-0.78-0.175-0.78-0.39s-0.351-0.39-0.781-0.39c-0.429 0-0.78-0.176-0.78-0.391 0-0.214-0.313-0.39-0.695-0.39-0.381 0-0.947-0.351-1.256-0.78-0.31-0.43-0.963-0.781-1.452-0.781-0.49 0-0.89-0.175-0.89-0.39s-0.351-0.39-0.78-0.39c-0.434 0-0.781-0.26-0.781-0.586 0-0.322-0.271-0.585-0.602-0.585-0.33 0-0.978-0.351-1.439-0.781-0.461-0.429-1.156-0.78-1.545-0.78-0.388 0-0.707-0.176-0.707-0.39 0-0.215-0.351-0.391-0.78-0.391s-0.781-0.175-0.781-0.39c0-0.214-0.312-0.39-0.694-0.39s-0.947-0.351-1.257-0.78c-0.309-0.43-0.856-0.781-1.215-0.781s-0.754-0.263-0.877-0.585c-0.124-0.322-0.543-0.586-0.931-0.586-0.389 0-0.96-0.351-1.269-0.78-0.31-0.429-0.875-0.781-1.257-0.781s-0.695-0.175-0.695-0.39-0.351-0.39-0.78-0.39-0.781-0.176-0.781-0.39c0-0.215-0.4-0.391-0.889-0.391s-1.143-0.351-1.452-0.78-0.875-0.781-1.257-0.781-0.694-0.175-0.694-0.39-0.333-0.39-0.739-0.39-0.84-0.264-0.963-0.585c-0.124-0.322-0.494-0.586-0.823-0.586-0.328 0-0.597-0.175-0.597-0.39s-0.264-0.39-0.586-0.39-0.585-0.176-0.585-0.391c0-0.214-0.351-0.39-0.78-0.39-0.43 0-0.781-0.175-0.781-0.39s-0.312-0.39-0.694-0.39-0.948-0.352-1.257-0.781c-0.31-0.429-0.963-0.78-1.452-0.78s-0.89-0.176-0.89-0.391c0-0.214-0.351-0.39-0.78-0.39s-0.781-0.175-0.781-0.39-0.351-0.39-0.78-0.39-0.781-0.231-0.781-0.513c0-0.546-2.823-2.219-3.744-2.219-0.301 0-0.548-0.176-0.548-0.39 0-0.215-0.313-0.39-0.695-0.39s-0.947-0.352-1.257-0.781c-0.309-0.429-0.875-0.78-1.256-0.78-0.382 0-0.695-0.176-0.695-0.391 0-0.214-0.439-0.39-0.975-0.39-0.537 0-0.976-0.176-0.976-0.39 0-0.215-0.351-0.39-0.78-0.39-0.43 0-0.781-0.189-0.781-0.419 0-0.621-1.027-1.533-1.728-1.533-0.337 0-0.613-0.175-0.613-0.39s-0.352-0.39-0.781-0.39-0.78-0.176-0.78-0.39c0-0.215-0.264-0.391-0.586-0.391s-0.585-0.175-0.585-0.39c0-0.214-0.351-0.39-0.781-0.39-0.429 0-0.78-0.176-0.78-0.39 0-0.215-0.351-0.391-0.781-0.391-0.429 0-0.78-0.175-0.78-0.39 0-0.214-0.31-0.39-0.688-0.39s-1.017-0.439-1.42-0.976c-0.403-0.536-1.06-0.975-1.459-0.975s-0.726-0.176-0.726-0.391c0-0.214-0.351-0.39-0.78-0.39s-0.781-0.175-0.781-0.39-0.312-0.39-0.694-0.39-0.948-0.351-1.257-0.781c-0.309-0.429-0.963-0.78-1.452-0.78s-0.889-0.176-0.889-0.39c0-0.215-0.313-0.391-0.695-0.391s-0.947-0.351-1.257-0.78c-0.309-0.429-0.875-0.781-1.256-0.781-0.382 0-0.695-0.162-0.695-0.361 0-0.392-2.185-1.59-2.9-1.59-0.242 0-0.693-0.351-1.002-0.78-0.31-0.43-0.875-0.781-1.257-0.781s-0.694-0.176-0.694-0.39c0-0.215-0.352-0.39-0.781-0.39s-0.78-0.176-0.78-0.391c0-0.214-0.398-0.39-0.883-0.39-0.487 0-1.213-0.438-1.616-0.975s-0.972-0.976-1.263-0.976c-0.292 0-0.531-0.176-0.531-0.39 0-0.215-0.351-0.391-0.781-0.391-0.429 0-0.78-0.175-0.78-0.39 0-0.214-0.351-0.39-0.781-0.39-0.429 0-0.78-0.176-0.78-0.39 0-0.215-0.264-0.391-0.585-0.391-0.322 0-0.586-0.175-0.586-0.39 0-0.214-0.351-0.39-0.78-0.39-0.43 0-0.781-0.176-0.781-0.39 0-0.215-0.312-0.391-0.694-0.391s-0.948-0.351-1.257-0.78-0.856-0.781-1.215-0.781-0.754-0.263-0.877-0.585c-0.124-0.322-0.582-0.585-1.018-0.585s-0.792-0.176-0.792-0.39c0-0.215-0.313-0.391-0.695-0.391s-0.947-0.351-1.257-0.78c-0.309-0.429-0.864-0.781-1.234-0.781-0.369 0-0.779-0.175-0.912-0.39s-0.582-0.39-0.999-0.39c-0.416 0-0.757-0.176-0.757-0.39 0-0.215-0.313-0.391-0.694-0.391-0.382 0-0.948-0.351-1.257-0.78-0.31-0.429-0.857-0.781-1.215-0.781-0.359 0-0.754-0.263-0.878-0.585-0.123-0.322-0.542-0.585-0.931-0.585s-0.96-0.352-1.269-0.781-0.875-0.78-1.257-0.78-0.694-0.176-0.694-0.391c0-0.214-0.351-0.39-0.781-0.39-0.429 0-0.78-0.175-0.78-0.39s-0.351-0.39-0.781-0.39c-0.429 0-0.78-0.176-0.78-0.391 0-0.214-0.264-0.39-0.586-0.39s-0.585-0.175-0.585-0.39-0.351-0.39-0.78-0.39c-0.43 0-0.781-0.176-0.781-0.391 0-0.214-0.351-0.39-0.78-0.39-0.434 0-0.781-0.26-0.781-0.585 0-0.322-0.271-0.586-0.602-0.586-0.33 0-0.978-0.351-1.439-0.78s-1.156-0.781-1.545-0.781c-0.388 0-0.707-0.175-0.707-0.39 0-0.214-0.351-0.39-0.78-0.39s-0.781-0.176-0.781-0.39c0-0.215-0.312-0.39-0.694-0.39s-0.947-0.352-1.257-0.781c-0.309-0.429-0.963-0.78-1.452-0.78s-0.889-0.176-0.889-0.391c0-0.214-0.351-0.39-0.781-0.39-0.429 0-0.78-0.188-0.78-0.418 0-0.622-1.028-1.533-1.728-1.533-0.338 0-0.614-0.176-0.614-0.39 0-0.215-0.526-0.391-1.17-0.391s-1.171 0.176-1.171 0.391m2.341 16.78c0 0.215 0.352 0.39 0.781 0.39s0.78 0.176 0.78 0.391c0 0.214 0.352 0.39 0.781 0.39s0.78 0.175 0.78 0.39 0.264 0.39 0.586 0.39 0.585 0.176 0.585 0.391c0 0.214 0.351 0.39 0.781 0.39 0.429 0 0.78 0.175 0.78 0.39s0.351 0.39 0.78 0.39c0.43 0 0.781 0.176 0.781 0.391 0 0.214 0.31 0.39 0.688 0.39s1.017 0.439 1.42 0.975c0.403 0.537 1.06 0.976 1.459 0.976s0.726 0.176 0.726 0.39c0 0.215 0.351 0.39 0.78 0.39s0.781 0.176 0.781 0.391c0 0.214 0.312 0.39 0.694 0.39s0.947 0.351 1.257 0.78c0.309 0.43 0.963 0.781 1.452 0.781s0.889 0.176 0.889 0.39c0 0.215 0.313 0.39 0.695 0.39s0.947 0.352 1.257 0.781c0.309 0.429 0.875 0.78 1.256 0.78 0.382 0 0.695 0.163 0.695 0.362 0 0.392 2.185 1.59 2.9 1.59 0.242 0 0.693 0.351 1.002 0.78 0.31 0.429 0.875 0.781 1.257 0.781s0.694 0.175 0.694 0.39c0 0.214 0.352 0.39 0.781 0.39s0.78 0.176 0.78 0.39c0 0.215 0.264 0.391 0.586 0.391s0.585 0.175 0.585 0.39c0 0.214 0.333 0.39 0.739 0.39s0.84 0.263 0.963 0.585c0.124 0.322 0.494 0.586 0.822 0.586 0.329 0 0.598 0.175 0.598 0.39s0.271 0.39 0.602 0.39 0.978 0.351 1.439 0.781c0.461 0.429 1.156 0.78 1.545 0.78s0.707 0.176 0.707 0.39c0 0.215 0.351 0.391 0.78 0.391 0.43 0 0.781 0.175 0.781 0.39s0.312 0.39 0.694 0.39 0.948 0.351 1.257 0.781c0.309 0.429 0.963 0.78 1.452 0.78 0.53 0 0.889 0.236 0.889 0.586 0 0.325 0.347 0.585 0.781 0.585 0.429 0 0.78 0.176 0.78 0.39 0 0.215 0.313 0.39 0.695 0.39s0.947 0.352 1.257 0.781c0.309 0.429 0.875 0.78 1.256 0.78 0.382 0 0.695 0.176 0.695 0.391 0 0.214 0.4 0.39 0.889 0.39s1.143 0.351 1.452 0.78c0.31 0.43 0.875 0.781 1.257 0.781s0.695 0.175 0.695 0.39 0.332 0.39 0.738 0.39c0.407 0 0.84 0.264 0.964 0.586 0.123 0.322 0.542 0.585 0.931 0.585 0.388 0 0.96 0.351 1.269 0.781 0.309 0.429 0.875 0.78 1.257 0.78s0.694 0.176 0.694 0.39c0 0.215 0.351 0.391 0.781 0.391 0.429 0 0.78 0.175 0.78 0.39 0 0.214 0.351 0.39 0.781 0.39 0.429 0 0.78 0.176 0.78 0.39 0 0.215 0.264 0.391 0.585 0.391 0.322 0 0.586 0.175 0.586 0.39 0 0.214 0.351 0.39 0.78 0.39 0.43 0 0.781 0.176 0.781 0.39 0 0.215 0.351 0.39 0.78 0.39 0.43 0 0.781 0.231 0.781 0.513 0 0.546 2.823 2.219 3.744 2.219 0.302 0 0.548 0.176 0.548 0.39 0 0.215 0.313 0.391 0.695 0.391s0.947 0.351 1.257 0.78c0.309 0.429 0.875 0.781 1.257 0.781 0.381 0 0.694 0.175 0.694 0.39s0.439 0.39 0.976 0.39c0.536 0 0.975 0.176 0.975 0.39 0 0.215 0.351 0.391 0.781 0.391 0.429 0 0.78 0.188 0.78 0.418 0 0.621 1.027 1.533 1.728 1.533 0.338 0 0.614 0.175 0.614 0.39s0.351 0.39 0.78 0.39 0.781 0.176 0.781 0.391c0 0.214 0.4 0.39 0.889 0.39s1.143 0.351 1.452 0.78c0.309 0.43 0.875 0.781 1.257 0.781s0.694 0.175 0.694 0.39 0.31 0.39 0.688 0.39 1.018 0.439 1.421 0.976c0.403 0.536 1.059 0.976 1.458 0.976s0.726 0.175 0.726 0.39c0 0.214 0.351 0.39 0.78 0.39 0.43 0 0.781 0.176 0.781 0.39 0 0.215 0.271 0.39 0.602 0.39s0.978 0.352 1.439 0.781 1.156 0.78 1.545 0.78c0.388 0 0.707 0.176 0.707 0.391 0 0.214 0.351 0.39 0.78 0.39s0.781 0.176 0.781 0.39c0 0.215 0.351 0.39 0.78 0.39s0.781 0.201 0.781 0.445c0 0.6 1.205 1.479 2.048 1.494 0.376 7e-3 0.683 0.188 0.683 0.403s0.313 0.39 0.695 0.39c0.381 0 0.947 0.351 1.256 0.781 0.31 0.429 0.875 0.78 1.257 0.78s0.695 0.176 0.695 0.39c0 0.215 0.351 0.391 0.78 0.391s0.781 0.175 0.781 0.39c0 0.214 0.397 0.39 0.883 0.39s1.212 0.438 1.615 0.976c0.403 0.536 0.972 0.975 1.264 0.975s0.53 0.176 0.53 0.391c0 0.214 0.352 0.39 0.781 0.39s0.78 0.175 0.78 0.39 0.401 0.39 0.89 0.39 1.142 0.352 1.452 0.781c0.309 0.429 0.875 0.78 1.257 0.78s0.694 0.176 0.694 0.391c0 0.214 0.312 0.39 0.694 0.39s0.948 0.351 1.257 0.78c0.31 0.43 0.963 0.781 1.452 0.781 0.531 0 0.89 0.236 0.89 0.585 0 0.325 0.347 0.585 0.78 0.585 0.429 0 0.781 0.176 0.781 0.391 0 0.214 0.351 0.39 0.78 0.39 0.778 0 0.781 0.26 0.781 73.951s-3e-3 73.951-0.781 73.951c-0.429 0-0.78 0.176-0.78 0.391 0 0.214-0.352 0.39-0.781 0.39s-0.78 0.175-0.78 0.39-0.401 0.39-0.89 0.39-1.142 0.352-1.452 0.781c-0.309 0.429-0.875 0.78-1.257 0.78s-0.694 0.176-0.694 0.391c0 0.214-0.312 0.39-0.694 0.39s-0.948 0.351-1.257 0.78c-0.31 0.43-0.881 0.781-1.269 0.781-0.389 0-0.808 0.263-0.932 0.585-0.123 0.322-0.557 0.586-0.963 0.586s-0.739 0.175-0.739 0.39c0 0.214-0.312 0.39-0.694 0.39s-0.947 0.351-1.257 0.781c-0.309 0.429-0.963 0.78-1.452 0.78s-0.889 0.176-0.889 0.39c0 0.215-0.352 0.39-0.781 0.39s-0.78 0.176-0.78 0.391c0 0.214-0.313 0.39-0.695 0.39s-0.947 0.351-1.257 0.78c-0.309 0.43-0.875 0.781-1.256 0.781-0.382 0-0.695 0.263-0.695 0.585 0 0.365-0.368 0.586-0.975 0.586-0.537 0-0.976 0.175-0.976 0.39s-0.312 0.39-0.694 0.39-0.948 0.351-1.257 0.781c-0.31 0.429-0.856 0.78-1.215 0.78s-0.753 0.261-0.875 0.579-0.454 0.49-0.738 0.381-0.898 0.157-1.365 0.592c-0.466 0.434-1.118 0.79-1.449 0.79s-0.602 0.175-0.602 0.39c0 0.214-0.269 0.39-0.598 0.39-0.328 0-0.698 0.264-0.822 0.585-0.123 0.322-0.606 0.586-1.072 0.586-0.467 0-1.101 0.351-1.411 0.78-0.309 0.43-0.875 0.781-1.256 0.781-0.382 0-0.695 0.175-0.695 0.39s-0.351 0.39-0.78 0.39c-0.43 0-0.781 0.176-0.781 0.391 0 0.214-0.27 0.39-0.601 0.39s-0.979 0.351-1.44 0.78c-0.461 0.43-1.156 0.781-1.545 0.781-0.388 0-0.706 0.175-0.706 0.39s-0.239 0.39-0.531 0.39-0.861 0.439-1.263 0.976c-0.403 0.536-1.043 0.975-1.421 0.975s-0.688 0.176-0.688 0.391c0 0.214-0.439 0.39-0.975 0.39-0.537 0-0.976 0.176-0.976 0.39 0 0.215-0.313 0.39-0.694 0.39-0.382 0-0.948 0.352-1.257 0.781-0.31 0.429-0.875 0.78-1.257 0.78s-0.695 0.176-0.695 0.391c0 0.214-0.356 0.39-0.792 0.39s-0.894 0.263-1.018 0.585c-0.123 0.322-0.518 0.586-0.877 0.586s-0.906 0.351-1.215 0.78-0.875 0.781-1.257 0.781-0.694 0.175-0.694 0.39c0 0.214-0.351 0.39-0.781 0.39-0.429 0-0.78 0.176-0.78 0.39 0 0.215-0.264 0.391-0.586 0.391-0.321 0-0.585 0.175-0.585 0.39 0 0.214-0.351 0.39-0.78 0.39-0.43 0-0.781 0.176-0.781 0.39 0 0.215-0.351 0.391-0.78 0.391-0.43 0-0.781 0.175-0.781 0.39 0 0.214-0.351 0.39-0.78 0.39-0.43 0-0.781 0.188-0.781 0.418 0 0.689-1.059 1.533-1.923 1.533-0.445 0-0.809 0.176-0.809 0.391 0 0.214-0.351 0.39-0.78 0.39s-0.78 0.175-0.78 0.39-0.313 0.39-0.695 0.39-0.947 0.351-1.257 0.781c-0.309 0.429-0.963 0.78-1.452 0.78s-0.889 0.133-0.889 0.295-0.527 0.528-1.171 0.813-1.171 0.767-1.171 1.071-0.351 0.553-0.78 0.553-0.781 0.176-0.781 0.39c0 0.215-0.351 0.39-0.78 0.39s-0.781 0.176-0.781 0.391c0 0.214-0.4 0.39-0.889 0.39s-1.143 0.351-1.452 0.78c-0.309 0.43-0.875 0.781-1.257 0.781s-0.694 0.175-0.694 0.39-0.351 0.39-0.781 0.39c-0.429 0-0.78 0.176-0.78 0.391 0 0.214-0.339 0.39-0.752 0.39-0.414 0-1.098 0.439-1.52 0.975-0.422 0.537-1.049 0.976-1.394 0.976s-0.627 0.176-0.627 0.39c0 0.215-0.312 0.391-0.694 0.391s-0.948 0.351-1.257 0.78c-0.31 0.429-0.963 0.781-1.452 0.781s-0.89 0.175-0.89 0.39c0 0.214-0.351 0.39-0.78 0.39s-0.781 0.176-0.781 0.39c0 0.215-0.312 0.391-0.694 0.391s-0.947 0.351-1.257 0.78c-0.309 0.429-0.88 0.78-1.269 0.78s-0.808 0.264-0.931 0.586c-0.124 0.322-0.557 0.585-0.964 0.585-0.406 0-0.738 0.176-0.738 0.39 0 0.215-0.313 0.391-0.695 0.391-0.381 0-0.947 0.351-1.256 0.78-0.31 0.429-0.875 0.781-1.257 0.781s-0.695 0.175-0.695 0.39-0.318 0.39-0.707 0.39c-0.388 0-1.083 0.351-1.544 0.781-0.461 0.429-1.109 0.78-1.44 0.78s-0.601 0.176-0.601 0.39c0 0.215-0.352 0.391-0.781 0.391-0.433 0-0.78 0.26-0.78 0.585 0 0.349-0.359 0.585-0.89 0.585-0.489 0-1.142 0.352-1.452 0.781-0.309 0.429-0.875 0.78-1.257 0.78s-0.694 0.176-0.694 0.391c0 0.214-0.351 0.39-0.781 0.39-0.429 0-0.78 0.175-0.78 0.39s-0.271 0.39-0.602 0.39-0.978 0.352-1.439 0.781-1.156 0.78-1.545 0.78-0.707 0.264-0.707 0.586c0 0.325-0.347 0.585-0.78 0.585-0.429 0-0.781 0.176-0.781 0.39 0 0.215-0.614 0.391-1.366 0.391-0.751 0-1.365-0.176-1.365-0.391 0-0.214-0.352-0.39-0.781-0.39-0.433 0-0.78-0.26-0.78-0.585 0-0.322-0.313-0.586-0.695-0.586s-0.947-0.351-1.257-0.78c-0.309-0.429-0.864-0.781-1.233-0.781-0.37 0-0.78-0.175-0.913-0.39s-0.582-0.39-0.999-0.39c-0.416 0-0.757-0.176-0.757-0.39 0-0.215-0.312-0.391-0.694-0.391s-0.948-0.351-1.257-0.78c-0.31-0.429-0.856-0.781-1.215-0.781s-0.754-0.263-0.878-0.585c-0.123-0.322-0.542-0.585-0.931-0.585-0.388 0-0.96-0.352-1.269-0.781s-0.875-0.78-1.257-0.78-0.694-0.176-0.694-0.391c0-0.214-0.351-0.39-0.781-0.39-0.429 0-0.78-0.175-0.78-0.39s-0.351-0.39-0.781-0.39c-0.429 0-0.78-0.176-0.78-0.391 0-0.214-0.263-0.39-0.585-0.39s-0.586-0.175-0.586-0.39-0.351-0.39-0.78-0.39c-0.43 0-0.781-0.176-0.781-0.391 0-0.214-0.351-0.39-0.78-0.39-0.434 0-0.781-0.26-0.781-0.585 0-0.322-0.271-0.586-0.601-0.586-0.331 0-0.979-0.351-1.44-0.78s-1.156-0.78-1.545-0.78c-0.388 0-0.706-0.176-0.706-0.391 0-0.214-0.313-0.39-0.695-0.39s-0.947-0.351-1.257-0.78c-0.309-0.43-0.864-0.781-1.234-0.781-0.369 0-0.779-0.176-0.912-0.39-0.133-0.215-0.582-0.39-0.999-0.39-0.416 0-0.757-0.176-0.757-0.391 0-0.214-0.351-0.39-0.781-0.39-0.429 0-0.78-0.188-0.78-0.418 0-0.613-1.023-1.533-1.705-1.533-0.325 0-0.699-0.176-0.832-0.39-0.132-0.215-0.582-0.391-0.998-0.391-0.417 0-0.758-0.175-0.758-0.39s-0.312-0.39-0.694-0.39-0.948-0.351-1.257-0.781c-0.309-0.429-0.875-0.78-1.257-0.78s-0.694-0.176-0.694-0.39c0-0.215-0.351-0.391-0.781-0.391-0.429 0-0.78-0.175-0.78-0.39 0-0.214-0.264-0.39-0.586-0.39-0.321 0-0.585-0.263-0.585-0.585 0-0.326-0.347-0.586-0.78-0.586-0.43 0-0.781-0.175-0.781-0.39s-0.351-0.39-0.78-0.39c-0.43 0-0.781-0.176-0.781-0.391 0-0.214-0.271-0.39-0.602-0.39-0.33 0-0.978-0.351-1.439-0.78-0.461-0.43-1.156-0.781-1.545-0.781-0.388 0-0.707-0.175-0.707-0.39s-0.351-0.39-0.78-0.39-0.781-0.176-0.781-0.39c0-0.215-0.309-0.391-0.687-0.391-0.379 0-1.018-0.439-1.421-0.975-0.403-0.537-1.059-0.976-1.458-0.976-0.4 0-0.726-0.176-0.726-0.39 0-0.215-0.313-0.39-0.695-0.39-0.381 0-0.947-0.352-1.256-0.781-0.31-0.429-0.875-0.78-1.257-0.78s-0.695-0.176-0.695-0.391c0-0.214-0.351-0.39-0.78-0.39s-0.781-0.176-0.781-0.39c0-0.215-0.4-0.39-0.889-0.39s-1.143-0.352-1.452-0.781-0.856-0.78-1.215-0.78-0.754-0.264-0.877-0.586c-0.124-0.322-0.494-0.585-0.823-0.585-0.328 0-0.597-0.176-0.597-0.39 0-0.215-0.401-0.391-0.89-0.391s-1.142-0.351-1.452-0.78c-0.309-0.429-0.875-0.781-1.257-0.781-0.381 0-0.694-0.175-0.694-0.39 0-0.214-0.351-0.39-0.78-0.39-0.43 0-0.781-0.176-0.781-0.39 0-0.215-0.351-0.391-0.78-0.391-0.43 0-0.781-0.175-0.781-0.39 0-0.214-0.263-0.39-0.585-0.39s-0.586-0.263-0.586-0.585c0-0.326-0.347-0.586-0.78-0.586-0.429 0-0.781-0.175-0.781-0.39s-0.351-0.39-0.78-0.39-0.781-0.176-0.781-0.39c0-0.215-0.27-0.391-0.601-0.391s-0.979-0.351-1.44-0.78c-0.46-0.429-1.156-0.781-1.544-0.781-0.389 0-0.707-0.175-0.707-0.39s-0.313-0.39-0.695-0.39c-0.381 0-0.947-0.351-1.256-0.781-0.31-0.429-0.857-0.78-1.216-0.78s-0.753-0.264-0.877-0.586c-0.123-0.321-0.581-0.585-1.017-0.585s-0.793-0.176-0.793-0.39c0-0.215-0.312-0.39-0.694-0.39s-0.948-0.352-1.257-0.781c-0.31-0.429-0.875-0.78-1.257-0.78s-0.694-0.176-0.694-0.391c0-0.214-0.352-0.39-0.781-0.39s-0.78-0.175-0.78-0.39-0.401-0.39-0.89-0.39-1.142-0.352-1.452-0.781c-0.309-0.429-0.875-0.78-1.257-0.78s-0.694-0.264-0.694-0.586-0.318-0.585-0.707-0.585-1.084-0.351-1.545-0.781c-0.46-0.429-1.108-0.78-1.439-0.78s-0.602-0.176-0.602-0.39c0-0.215-0.351-0.391-0.78-0.391s-0.781-0.175-0.781-0.39c0-0.214-0.312-0.39-0.694-0.39s-0.948-0.351-1.257-0.78c-0.309-0.43-0.963-0.781-1.452-0.781s-0.889-0.176-0.889-0.39c0-0.215-0.352-0.39-0.781-0.39-0.433 0-0.78-0.261-0.78-0.586 0-0.322-0.271-0.585-0.602-0.585s-0.979-0.351-1.439-0.781c-0.461-0.429-1.156-0.78-1.545-0.78s-0.707-0.176-0.707-0.39c0-0.215-0.312-0.391-0.694-0.391s-0.948-0.351-1.257-0.78c-0.31-0.429-0.875-0.781-1.257-0.781s-0.694-0.175-0.694-0.39-0.352-0.39-0.781-0.39-0.78-0.176-0.78-0.39c0-0.215-0.439-0.391-0.976-0.391h-0.976v-73.951c0-61.723 0.087-73.951 0.526-73.951 0.782 0 2.987-1.173 2.987-1.59 0-0.199 0.312-0.361 0.694-0.361s0.947-0.351 1.257-0.781c0.309-0.429 0.875-0.78 1.257-0.78s0.694-0.176 0.694-0.39c0-0.215 0.4-0.391 0.889-0.391 0.49 0 1.143-0.351 1.452-0.78 0.31-0.429 0.875-0.781 1.257-0.781s0.695-0.175 0.695-0.39 0.351-0.39 0.78-0.39 0.781-0.176 0.781-0.39c0-0.215 0.326-0.391 0.725-0.391 0.4 0 1.056-0.439 1.459-0.975 0.403-0.537 1.042-0.976 1.42-0.976 0.379 0 0.688-0.176 0.688-0.39 0-0.215 0.352-0.39 0.781-0.39s0.78-0.176 0.78-0.391c0-0.214 0.352-0.39 0.781-0.39s0.78-0.175 0.78-0.39 0.264-0.39 0.586-0.39 0.585-0.176 0.585-0.391c0-0.214 0.351-0.39 0.78-0.39 0.43 0 0.781-0.175 0.781-0.39s0.276-0.39 0.613-0.39c0.701 0 1.728-0.912 1.728-1.533 0-0.23 0.439-0.419 0.976-0.419s0.976-0.175 0.976-0.39c0-0.214 0.351-0.39 0.78-0.39s0.781-0.176 0.781-0.39c0-0.215 0.312-0.391 0.694-0.391s0.947-0.351 1.257-0.78c0.309-0.429 0.875-0.781 1.257-0.781s0.694-0.175 0.694-0.39c0-0.214 0.237-0.39 0.525-0.39 0.872 0 2.755-1.081 3.366-1.932 0.316-0.44 0.887-0.8 1.268-0.8 0.382 0 0.695-0.175 0.695-0.39s0.318-0.39 0.707-0.39c0.388 0 1.084-0.351 1.544-0.781 0.461-0.429 1.109-0.78 1.44-0.78s0.601-0.176 0.601-0.39c0-0.215 0.352-0.391 0.781-0.391s0.78-0.175 0.78-0.39 0.288-0.39 0.639-0.39 1.045-0.439 1.542-0.976c0.497-0.536 1.176-0.975 1.508-0.975s0.604-0.176 0.604-0.391c0-0.214 0.351-0.39 0.781-0.39 0.429 0 0.78-0.175 0.78-0.39s0.313-0.39 0.694-0.39c0.382 0 0.948-0.352 1.257-0.781 0.31-0.429 0.963-0.78 1.452-0.78s0.89-0.176 0.89-0.391c0-0.214 0.351-0.39 0.78-0.39s0.781-0.175 0.781-0.39 0.276-0.39 0.613-0.39c0.701 0 1.728-0.912 1.728-1.533 0-0.23 0.439-0.419 0.976-0.419 0.536 0 0.975-0.175 0.975-0.39 0-0.214 0.352-0.39 0.781-0.39s0.78-0.176 0.78-0.39c0-0.215 0.313-0.39 0.695-0.39s0.947-0.352 1.257-0.781c0.309-0.429 0.875-0.78 1.256-0.78 0.382 0 0.695-0.176 0.695-0.391 0-0.214 0.318-0.39 0.707-0.39s1.084-0.351 1.544-0.78c0.461-0.43 1.109-0.781 1.44-0.781s0.601-0.263 0.601-0.585c0-0.325 0.347-0.586 0.781-0.586 0.429 0 0.78-0.175 0.78-0.39s0.319-0.39 0.707-0.39c0.389 0 1.084-0.351 1.545-0.781 0.461-0.429 1.109-0.78 1.439-0.78 0.331 0 0.602-0.176 0.602-0.39 0-0.215 0.351-0.391 0.781-0.391 0.429 0 0.78-0.175 0.78-0.39 0-0.214 0.271-0.39 0.602-0.39s0.978-0.351 1.439-0.781c0.461-0.429 1.156-0.78 1.545-0.78s0.707-0.263 0.707-0.585 0.312-0.586 0.694-0.586 0.948-0.351 1.257-0.78c0.309-0.43 0.875-0.781 1.257-0.781s0.694-0.175 0.694-0.39 0.439-0.39 0.976-0.39c0.536 0 0.975-0.176 0.975-0.391 0-0.214 0.313-0.39 0.695-0.39s0.947-0.351 1.257-0.78c0.309-0.43 0.875-0.781 1.257-0.781 0.381 0 0.694-0.175 0.694-0.39s0.357-0.39 0.793-0.39 0.893-0.264 1.017-0.586 0.518-0.585 0.877-0.585 0.906-0.351 1.215-0.78c0.31-0.43 0.875-0.781 1.257-0.781s0.695-0.176 0.695-0.39c0-0.215 0.318-0.39 0.706-0.39 0.389 0 1.084-0.352 1.545-0.781s1.109-0.78 1.44-0.78c0.33 0 0.601-0.176 0.601-0.391 0-0.214 0.269-0.39 0.598-0.39s0.699-0.263 0.822-0.585c0.124-0.322 0.557-0.586 0.963-0.586 0.407 0 0.739-0.175 0.739-0.39 0-0.214 0.264-0.39 0.586-0.39s0.585-0.176 0.585-0.39c0-0.215 0.351-0.391 0.78-0.391 0.43 0 0.781-0.175 0.781-0.39 0-0.214 0.351-0.39 0.78-0.39 0.43 0 0.781-0.176 0.781-0.39 0-0.215 0.312-0.391 0.694-0.391s0.948-0.351 1.257-0.78 0.963-0.781 1.452-0.781 0.89-0.175 0.89-0.39c0-0.214 0.238-0.39 0.53-0.39s0.861-0.439 1.264-0.976c0.403-0.536 1.042-0.975 1.42-0.975s0.688-0.176 0.688-0.39c0-0.215 0.341-0.391 0.757-0.391 0.417 0 0.866-0.175 0.999-0.39s0.543-0.39 0.913-0.39c0.369 0 0.924-0.351 1.233-0.781 0.31-0.429 0.875-0.78 1.257-0.78s0.695-0.176 0.695-0.39c0-0.215 0.351-0.391 0.78-0.391s0.781-0.175 0.781-0.39 0.614-0.39 1.365-0.39c0.752 0 1.366 0.175 1.366 0.39m-2.341 76.293c0 0.364-0.369 0.585-0.976 0.585-0.536 0-0.975 0.176-0.975 0.39 0 0.215-0.352 0.391-0.781 0.391s-0.78 0.175-0.78 0.39c0 0.214-0.352 0.39-0.781 0.39s-0.78 0.176-0.78 0.39c0 0.215-0.352 0.391-0.781 0.391s-0.78 0.175-0.78 0.39c0 0.214-0.264 0.39-0.586 0.39s-0.585 0.176-0.585 0.39c0 0.215-0.351 0.391-0.78 0.391-0.43 0-0.781 0.175-0.781 0.39 0 0.214-0.351 0.39-0.78 0.39-0.43 0-0.781 0.176-0.781 0.39 0 0.215-0.351 0.391-0.78 0.391-0.43 0-0.781 0.188-0.781 0.418 0 0.688-1.059 1.533-1.923 1.533-0.445 0-0.809 0.175-0.809 0.39s-0.351 0.39-0.78 0.39-0.781 0.176-0.781 0.39c0 0.215-0.351 0.391-0.78 0.391s-0.781 0.175-0.781 0.39-0.351 0.39-0.78 0.39-0.781 0.176-0.781 0.39c0 0.215-0.318 0.391-0.706 0.391-0.389 0-1.084 0.351-1.545 0.78s-1.109 0.781-1.44 0.781c-0.33 0-0.601 0.263-0.601 0.585 0 0.325-0.347 0.585-0.781 0.585-0.52 0-0.78 0.261-0.78 0.781 0 0.429-0.176 0.78-0.39 0.78-0.243 0-0.391 2.212-0.391 5.854v5.854h-0.975c-0.537 0-0.976 0.175-0.976 0.39s-0.351 0.39-0.78 0.39c-0.43 0-0.781 0.176-0.781 0.39 0 0.215-0.312 0.391-0.694 0.391s-0.948 0.351-1.257 0.78c-0.31 0.429-0.963 0.781-1.452 0.781s-0.89 0.175-0.89 0.39-0.351 0.39-0.78 0.39-0.781 0.176-0.781 0.39c0 0.215-0.268 0.391-0.597 0.391s-0.699 0.263-0.822 0.585c-0.124 0.322-0.557 0.585-0.964 0.585-0.406 0-0.739 0.176-0.739 0.391 0 0.214-0.263 0.39-0.585 0.39s-0.585 0.175-0.585 0.39-0.351 0.39-0.781 0.39c-0.429 0-0.78 0.176-0.78 0.391 0 0.214-0.351 0.39-0.781 0.39-0.429 0-0.78 0.175-0.78 0.39s-0.351 0.39-0.781 0.39c-0.429 0-0.78 0.176-0.78 0.391 0 0.214-0.318 0.39-0.707 0.39s-1.084 0.351-1.545 0.78c-0.46 0.43-1.108 0.781-1.439 0.781s-0.602 0.263-0.602 0.585c0 0.325-0.347 0.586-0.78 0.586-0.43 0-0.781 0.175-0.781 0.39 0 0.214-0.351 0.39-0.78 0.39-0.43 0-0.781 0.176-0.781 0.39 0 0.215-0.357 0.39-0.793 0.39-0.437 0-1.403 0.609-2.147 1.353l-1.352 1.353v13.477c0 11.102-0.094 13.476-0.531 13.476-0.292 0-0.861 0.439-1.264 0.976s-1.129 0.975-1.615 0.975-0.883 0.176-0.883 0.39c0 0.215-0.351 0.391-0.781 0.391-0.429 0-0.78 0.175-0.78 0.39s-0.351 0.39-0.781 0.39c-0.429 0-0.78 0.176-0.78 0.39 0 0.215-0.351 0.391-0.781 0.391-0.429 0-0.78 0.175-0.78 0.39s-0.184 0.39-0.408 0.39-0.839 0.431-1.366 0.958l-0.958 0.958v15.094 15.095l1.073 0.922c0.591 0.508 1.381 0.924 1.756 0.924 0.376 0 0.683 0.176 0.683 0.391 0 0.214 0.352 0.39 0.781 0.39s0.78 0.188 0.78 0.418c0 0.613 1.024 1.533 1.706 1.533 0.324 0 0.698 0.176 0.831 0.39 0.133 0.215 0.582 0.391 0.999 0.391 0.416 0 0.757 0.175 0.757 0.39 0 0.214 0.351 0.39 0.781 0.39 0.429 0 0.78 0.176 0.78 0.39 0 0.215 0.312 0.391 0.694 0.391s0.948 0.351 1.257 0.78c0.31 0.429 0.875 0.781 1.257 0.781s0.694 0.175 0.694 0.39c0 0.214 0.439 0.39 0.976 0.39 0.607 0 0.976 0.221 0.976 0.585 0 0.322 0.312 0.586 0.694 0.586s0.948 0.351 1.257 0.78c0.309 0.43 0.875 0.781 1.257 0.781s0.694 0.175 0.694 0.39 0.439 0.39 0.976 0.39c0.536 0 0.975 0.176 0.975 0.39 0 0.215 0.352 0.391 0.781 0.391s0.78 0.175 0.78 0.39 0.352 0.39 0.781 0.39 0.78 0.176 0.78 0.39c0 0.792 4.076 0.452 4.683-0.39 0.31-0.429 0.875-0.78 1.257-0.78s0.694-0.176 0.694-0.391c0-0.214 0.352-0.39 0.781-0.39s0.78-0.175 0.78-0.39 0.264-0.39 0.586-0.39 0.585 0.175 0.585 0.39 0.313 0.39 0.694 0.39c0.382 0 0.948 0.351 1.257 0.781 0.31 0.429 0.875 0.78 1.257 0.78s0.695 0.176 0.695 0.39c0 0.215 0.351 0.391 0.78 0.391s0.781 0.175 0.781 0.39 0.439 0.39 0.975 0.39c0.607 0 0.976 0.221 0.976 0.586 0 0.325 0.347 0.585 0.78 0.585 0.43 0 0.781 0.176 0.781 0.39 0 0.215 0.312 0.39 0.694 0.39s0.948 0.352 1.257 0.781 0.963 0.78 1.452 0.78 0.889 0.176 0.889 0.391c0 0.214 0.352 0.39 0.781 0.39s0.78 0.175 0.78 0.39 0.352 0.39 0.781 0.39 0.78 0.176 0.78 0.391c0 0.214 0.31 0.39 0.688 0.39 0.379 0 1.018 0.439 1.421 0.975 0.403 0.537 1.059 0.976 1.458 0.976s0.726 0.176 0.726 0.39c0 0.215 0.351 0.391 0.781 0.391 0.429 0 0.78 0.175 0.78 0.39 0 0.214 0.351 0.39 0.781 0.39 0.429 0 0.78 0.176 0.78 0.39 0 0.215 0.351 0.391 0.781 0.391 0.429 0 0.78 0.175 0.78 0.39 0 0.214 0.263 0.39 0.585 0.39s0.586 0.176 0.586 0.39c0 0.215 0.351 0.391 0.78 0.391s0.781 0.175 0.781 0.39c0 0.214 0.332 0.39 0.738 0.39 0.407 0 0.84 0.263 0.964 0.585 0.123 0.322 0.493 0.586 0.822 0.586s0.598 0.175 0.598 0.39 0.439 0.39 0.975 0.39c0.537 0 0.976 0.176 0.976 0.39 0 0.215 0.429 0.391 0.952 0.391 0.524 0 1.062-0.176 1.194-0.391 0.133-0.214 0.582-0.39 0.999-0.39 0.416 0 0.757-0.175 0.757-0.39s0.352-0.39 0.781-0.39c0.433 0 0.78-0.26 0.78-0.586 0-0.364 0.369-0.585 0.976-0.585 0.536 0 0.976-0.176 0.976-0.39 0-0.215 0.312-0.39 0.694-0.39s0.947-0.352 1.257-0.781c0.309-0.429 0.875-0.78 1.257-0.78 0.381 0 0.694-0.176 0.694-0.391 0-0.214 0.351-0.39 0.78-0.39 0.43 0 0.781-0.176 0.781-0.39 0-0.215 0.236-0.39 0.525-0.39 0.872 0 2.755-1.082 3.366-1.933 0.316-0.439 0.886-0.799 1.268-0.799s0.695-0.176 0.695-0.39c0-0.215 0.439-0.391 0.975-0.391 0.537 0 0.976-0.175 0.976-0.39s0.351-0.39 0.78-0.39c0.43 0 0.781-0.176 0.781-0.39 0-0.215 0.312-0.391 0.694-0.391s0.948-0.351 1.257-0.78 0.875-0.781 1.257-0.781 0.694-0.175 0.694-0.39c0-0.214 0.357-0.39 0.793-0.39s0.894-0.263 1.017-0.585c0.124-0.322 0.557-0.586 0.964-0.586 0.406 0 0.738-0.175 0.738-0.39s0.313-0.39 0.695-0.39 0.947-0.352 1.257-0.781c0.309-0.429 0.962-0.78 1.452-0.78 0.489 0 0.889-0.176 0.889-0.391 0-0.214 0.337-0.39 0.748-0.39s0.85-0.219 0.976-0.488c0.182-0.39 0.273-0.39 0.455 0 0.125 0.269 0.564 0.488 0.976 0.488 0.411 0 0.748 0.176 0.748 0.39 0 0.215 0.4 0.391 0.889 0.391s1.143 0.351 1.452 0.78c0.604 0.838 4.293 1.174 4.293 0.39 0-0.214 0.439-0.39 0.975-0.39 0.537 0 0.976-0.175 0.976-0.39s0.351-0.39 0.78-0.39c0.43 0 0.781-0.176 0.781-0.391 0-0.214 0.312-0.39 0.694-0.39s0.948-0.351 1.257-0.78c0.309-0.43 0.875-0.781 1.257-0.781s0.694-0.175 0.694-0.39 0.357-0.39 0.793-0.39 0.894-0.264 1.017-0.586c0.124-0.322 0.557-0.585 0.964-0.585 0.406 0 0.739-0.176 0.739-0.39 0-0.215 0.312-0.39 0.694-0.39s0.947-0.352 1.257-0.781c0.309-0.429 0.963-0.78 1.452-0.78s0.889-0.176 0.889-0.391c0-0.214 0.351-0.39 0.781-0.39 0.429 0 0.78-0.176 0.78-0.39 0-0.215 0.351-0.39 0.781-0.39 0.429 0 0.78-0.176 0.78-0.391 0-0.214 0.276-0.39 0.613-0.39 0.701 0 1.729-0.911 1.729-1.533 0-0.23 0.439-0.418 0.975-0.418 0.537 0 0.976-0.176 0.976-0.39 0-0.215 0.271-0.391 0.603-0.391s1.034-0.431 1.561-0.957l0.958-0.958v-13.481c0-8.728 0.137-13.482 0.39-13.482 0.215 0 0.39-0.79 0.39-1.756s-0.175-1.756-0.39-1.756-0.39-0.351-0.39-0.78c0-0.634-0.26-0.781-1.382-0.781-0.843 0-1.71-0.304-2.22-0.78-0.461-0.43-1.156-0.781-1.545-0.781s-0.707-0.175-0.707-0.39-0.351-0.39-0.78-0.39c-0.43 0-0.781-0.176-0.781-0.391 0-0.214-0.309-0.39-0.688-0.39-0.378 0-1.017-0.439-1.42-0.975-0.403-0.537-1.06-0.976-1.459-0.976-0.693 0-0.726-0.598-0.726-13.476v-13.477l-1.352-1.353c-0.744-0.744-1.622-1.353-1.952-1.353-0.329 0-0.598-0.175-0.598-0.39 0-0.214-0.351-0.39-0.78-0.39-0.43 0-0.781-0.176-0.781-0.39 0-0.215-0.439-0.39-0.976-0.39-0.607 0-0.975-0.222-0.975-0.586 0-0.322-0.313-0.585-0.695-0.585-0.381 0-0.947-0.351-1.256-0.781-0.31-0.429-0.875-0.78-1.257-0.78s-0.695-0.176-0.695-0.39c0-0.215-0.439-0.391-0.975-0.391-0.537 0-0.976-0.175-0.976-0.39s-0.351-0.39-0.78-0.39c-0.43 0-0.781-0.176-0.781-0.39 0-0.215-0.312-0.391-0.694-0.391s-0.948-0.351-1.257-0.78-0.856-0.781-1.215-0.781-0.754-0.263-0.877-0.585c-0.124-0.322-0.582-0.585-1.018-0.585s-0.792-0.176-0.792-0.391c0-0.214-0.352-0.39-0.781-0.39s-0.78-0.175-0.78-0.39-0.271-0.39-0.602-0.39-0.979-0.352-1.44-0.781c-0.46-0.429-1.155-0.78-1.544-0.78s-0.707-0.176-0.707-0.391c0-0.214-0.351-0.39-0.781-0.39-0.429 0-0.78-0.175-0.78-0.39s-0.351-0.39-0.781-0.39c-0.737 0-0.78-0.26-0.78-4.683 0-2.862 0.152-4.683 0.39-4.683 0.215 0 0.39-0.527 0.39-1.171s-0.175-1.171-0.39-1.171c-0.214 0-0.39-0.351-0.39-0.78 0-0.506-0.26-0.781-0.739-0.781-0.406 0-0.84-0.263-0.963-0.585-0.124-0.322-0.582-0.585-1.018-0.585s-0.792-0.176-0.792-0.391c0-0.214-0.351-0.39-0.781-0.39-0.429 0-0.78-0.175-0.78-0.39s-0.351-0.39-0.781-0.39c-0.429 0-0.78-0.176-0.78-0.391 0-0.214-0.351-0.39-0.781-0.39-0.429 0-0.78-0.175-0.78-0.39s-0.439-0.39-0.976-0.39c-0.536 0-0.975-0.176-0.975-0.391 0-0.214-0.313-0.39-0.695-0.39s-0.947-0.351-1.257-0.78c-0.309-0.43-0.856-0.781-1.215-0.781s-0.753-0.263-0.877-0.585-0.581-0.585-1.017-0.585-0.793-0.176-0.793-0.391c0-0.214-0.351-0.39-0.781-0.39-0.429 0-0.78-0.176-0.78-0.39 0-0.215-0.313-0.39-0.694-0.39-0.382 0-0.948-0.352-1.257-0.781-0.31-0.429-0.865-0.78-1.234-0.78s-0.78-0.176-0.913-0.391c-0.132-0.214-0.582-0.39-0.998-0.39-0.417 0-0.758-0.176-0.758-0.39 0-0.215-0.351-0.39-0.78-0.39s-0.781-0.176-0.781-0.391c0-0.214-0.332-0.39-0.738-0.39-0.407 0-0.84-0.263-0.964-0.585-0.123-0.322-0.669-0.586-1.212-0.586-0.618 0-0.988 0.22-0.988 0.586m1.561 8.39c0 0.215 0.351 0.39 0.78 0.39 0.43 0 0.781 0.176 0.781 0.39 0 0.215 0.271 0.391 0.602 0.391 0.33 0 0.978 0.351 1.439 0.78s1.156 0.781 1.545 0.781c0.388 0 0.707 0.175 0.707 0.39s0.351 0.39 0.78 0.39 0.78 0.176 0.78 0.39c0 0.215 0.352 0.391 0.781 0.391s0.78 0.175 0.78 0.39 0.333 0.39 0.739 0.39c0.407 0 0.84 0.264 0.964 0.586 0.123 0.321 0.542 0.585 0.931 0.585 0.388 0 0.96 0.351 1.269 0.78 0.309 0.43 0.875 0.781 1.257 0.781s0.694 0.1 0.694 0.223c0 0.458-1.137 1.338-1.728 1.338-0.337 0-0.613 0.175-0.613 0.39s-0.327 0.39-0.726 0.39-1.056 0.439-1.459 0.976-1.042 0.976-1.42 0.976-0.688 0.175-0.688 0.39c0 0.214-0.351 0.39-0.781 0.39-0.429 0-0.78 0.176-0.78 0.39 0 0.215-0.351 0.391-0.78 0.391-0.43 0-0.781 0.175-0.781 0.39 0 0.214-0.439 0.39-0.976 0.39-0.536 0-0.975 0.176-0.975 0.39 0 0.215-0.351 0.391-0.781 0.391-0.429 0-0.78 0.175-0.78 0.39 0 0.214-0.337 0.39-0.748 0.39-0.412 0-0.829 0.22-0.927 0.488-0.143 0.39-0.282 0.39-0.696 0-0.284-0.268-0.833-0.488-1.219-0.488-0.387 0-0.703-0.176-0.703-0.39 0-0.215-0.351-0.39-0.78-0.39-0.43 0-0.781-0.176-0.781-0.391 0-0.214-0.351-0.39-0.78-0.39-0.43 0-0.781-0.176-0.781-0.39 0-0.215-0.351-0.39-0.78-0.39-0.43 0-0.781-0.176-0.781-0.391 0-0.214-0.439-0.39-0.975-0.39-0.537 0-0.976-0.176-0.976-0.39 0-0.215-0.312-0.39-0.694-0.39s-0.953-0.36-1.269-0.8c-0.556-0.775-2.471-1.932-3.198-1.932-0.393 0-1.473-0.982-1.473-1.338 0-0.123 0.318-0.223 0.707-0.223s1.084-0.351 1.544-0.781c0.461-0.429 1.109-0.78 1.44-0.78s0.602-0.264 0.602-0.585c0-0.326 0.346-0.586 0.78-0.586 0.429 0 0.781-0.175 0.781-0.39s0.351-0.39 0.78-0.39 0.78-0.176 0.78-0.391c0-0.214 0.44-0.39 0.976-0.39 0.537 0 0.976-0.175 0.976-0.39s0.312-0.39 0.694-0.39 0.948-0.352 1.257-0.781 0.875-0.78 1.257-0.78 0.694-0.176 0.694-0.391c0-0.214 0.341-0.39 0.758-0.39 0.416 0 0.866-0.175 0.998-0.39 0.133-0.215 0.407-0.39 0.609-0.39s0.367 0.175 0.367 0.39m-19.122 15.61c0 0.214 0.351 0.39 0.78 0.39 0.43 0 0.781 0.176 0.781 0.39 0 0.215 0.351 0.39 0.78 0.39 0.43 0 0.781 0.176 0.781 0.391 0 0.214 0.439 0.39 0.975 0.39 0.537 0 0.976 0.188 0.976 0.418 0 0.622 1.027 1.533 1.728 1.533 0.338 0 0.614 0.176 0.614 0.39 0 0.215 0.351 0.391 0.78 0.391s0.781 0.175 0.781 0.39 0.439 0.39 0.975 0.39c0.537 0 0.976 0.176 0.976 0.39 0 0.215 0.312 0.391 0.694 0.391s0.948 0.351 1.257 0.78 0.875 0.781 1.257 0.781c0.646 0 0.694 0.639 0.694 9.17 0 5.854-0.141 9.171-0.39 9.171-0.215 0-0.39-0.176-0.39-0.39 0-0.215-0.352-0.39-0.781-0.39s-0.78-0.176-0.78-0.391c0-0.214-0.401-0.39-0.89-0.39s-1.142-0.351-1.452-0.78c-0.309-0.43-0.875-0.781-1.257-0.781s-0.694-0.175-0.694-0.39-0.351-0.39-0.78-0.39c-0.434 0-0.781-0.261-0.781-0.586 0-0.322-0.341-0.585-0.757-0.585-0.417 0-0.866-0.176-0.999-0.39-0.133-0.215-0.543-0.391-0.913-0.391-0.369 0-0.924-0.351-1.233-0.78-0.31-0.429-0.875-0.781-1.257-0.781s-0.695-0.175-0.695-0.39c0-0.214-0.276-0.39-0.613-0.39-1.596 0-1.728-0.745-1.728-9.728 0-8.353 0.024-8.613 0.78-8.613 0.43 0 0.781 0.175 0.781 0.39m39.024 8.223c0 8.958-0.135 9.728-1.705 9.728-0.325 0-0.699 0.176-0.831 0.39-0.133 0.215-0.544 0.39-0.913 0.39s-0.924 0.352-1.234 0.781c-0.309 0.429-0.875 0.78-1.257 0.78-0.381 0-0.694 0.176-0.694 0.391 0 0.214-0.351 0.39-0.78 0.39-0.434 0-0.781 0.26-0.781 0.585 0 0.365-0.368 0.586-0.975 0.586-0.537 0-0.976 0.175-0.976 0.39s-0.351 0.39-0.781 0.39c-0.429 0-0.78 0.176-0.78 0.39 0 0.215-0.312 0.391-0.694 0.391s-0.948 0.351-1.257 0.78c-0.31 0.429-0.963 0.781-1.452 0.781s-0.89 0.175-0.89 0.39c0 0.214-0.175 0.39-0.39 0.39-0.249 0-0.39-3.261-0.39-9.003 0-9.592 0.1-10.119 1.923-10.119 0.445 0 0.809-0.175 0.809-0.39s0.351-0.39 0.78-0.39 0.78-0.176 0.78-0.391c0-0.214 0.352-0.39 0.781-0.39s0.78-0.175 0.78-0.39 0.352-0.39 0.781-0.39 0.78-0.176 0.78-0.391c0-0.214 0.308-0.395 0.683-0.402 0.844-0.016 2.049-0.895 2.049-1.494 0-0.245 0.351-0.445 0.781-0.445 0.429 0 0.78-0.176 0.78-0.39 0-0.215 0.351-0.391 0.781-0.391 0.429 0 0.78-0.175 0.78-0.39 0-0.214 0.351-0.39 0.781-0.39 0.429 0 0.78-0.176 0.78-0.39 0-0.215 0.439-0.39 0.976-0.39h0.975v8.613m-48 7.886c0 4.344 0.073 4.844 0.781 5.354 0.429 0.31 0.78 0.712 0.78 0.895 0 0.549 1.073 1.447 1.728 1.447 0.338 0 0.614 0.175 0.614 0.39s0.351 0.39 0.78 0.39 0.781 0.176 0.781 0.39c0 0.215 0.439 0.391 0.975 0.391 0.537 0 0.976 0.175 0.976 0.39 0 0.214 0.312 0.39 0.694 0.39s0.948 0.351 1.257 0.781c0.31 0.429 0.875 0.78 1.257 0.78s0.694 0.176 0.694 0.39c0 0.215 0.439 0.391 0.976 0.391 0.607 0 0.976 0.221 0.976 0.585 0 0.325 0.346 0.585 0.78 0.585 0.429 0 0.781 0.176 0.781 0.391 0 0.214 0.312 0.39 0.694 0.39s0.947 0.351 1.257 0.78c0.309 0.43 0.864 0.781 1.234 0.781 0.369 0 0.779 0.175 0.912 0.39s0.582 0.39 0.999 0.39c0.416 0 0.757 0.176 0.757 0.39 0 0.215 0.351 0.391 0.781 0.391 0.429 0 0.78 0.175 0.78 0.39s0.351 0.39 0.781 0.39c0.429 0 0.78 0.2 0.78 0.445 0 0.952 1.42 1.482 4 1.494 1.504 7e-3 2.634-0.155 2.634-0.378 0-0.214 0.352-0.39 0.781-0.39s0.78-0.188 0.78-0.418c0-0.689 1.06-1.533 1.924-1.533 0.444 0 0.808-0.176 0.808-0.391 0-0.214 0.351-0.39 0.78-0.39 0.43 0 0.781-0.175 0.781-0.39s0.312-0.39 0.694-0.39 0.948-0.351 1.257-0.781c0.31-0.429 0.865-0.78 1.234-0.78s0.78-0.176 0.913-0.39c0.132-0.215 0.582-0.391 0.998-0.391 0.417 0 0.758-0.263 0.758-0.585 0-0.325 0.347-0.585 0.78-0.585 0.429 0 0.781-0.176 0.781-0.391 0-0.214 0.312-0.39 0.694-0.39s0.947-0.351 1.257-0.78c0.309-0.43 0.963-0.781 1.452-0.781s0.889-0.176 0.889-0.39c0-0.215 0.352-0.39 0.781-0.39s0.78-0.176 0.78-0.391c0-0.214 0.351-0.39 0.781-0.39 0.429 0 0.78-0.175 0.78-0.39s0.277-0.39 0.616-0.39 1.305-0.696 2.147-1.546l1.53-1.546v-4.698c0-2.872 0.152-4.698 0.39-4.698 0.215 0 0.39 0.175 0.39 0.39s0.352 0.39 0.781 0.39 0.78 0.176 0.78 0.391c0 0.214 0.264 0.39 0.586 0.39s0.585 0.175 0.585 0.39 0.351 0.39 0.781 0.39c0.429 0 0.78 0.176 0.78 0.391 0 0.214 0.351 0.39 0.781 0.39 0.429 0 0.78 0.175 0.78 0.39s0.282 0.39 0.627 0.39 0.972 0.439 1.394 0.976c0.422 0.536 1.106 0.975 1.52 0.975 0.413 0 0.752 0.176 0.752 0.391 0 0.214 0.351 0.39 0.78 0.39 0.43 0 0.781 0.176 0.781 0.39 0 0.215 0.351 0.39 0.78 0.39s0.781 0.176 0.781 0.391c0 0.214 0.351 0.39 0.78 0.39s0.781 0.176 0.781 0.39c0 0.215 0.4 0.39 0.889 0.39s1.143 0.352 1.452 0.781c0.31 0.429 0.856 0.78 1.215 0.78s0.754 0.264 0.877 0.586c0.124 0.322 0.419 0.585 0.655 0.585 1.402 0 1.546 0.943 1.546 10.119 0 8.743-0.023 9.003-0.781 9.003-0.429 0-0.78-0.176-0.78-0.39 0-0.215-0.351-0.39-0.781-0.39-0.433 0-0.78-0.261-0.78-0.586s-0.347-0.585-0.781-0.585c-0.429 0-0.78-0.176-0.78-0.39 0-0.215-0.264-0.391-0.585-0.391-0.322 0-0.586-0.175-0.586-0.39 0-0.217-1.04-0.39-2.341-0.39s-2.342 0.173-2.342 0.39c0 0.215-0.287 0.39-0.638 0.39s-1.045 0.439-1.542 0.976c-0.498 0.537-1.176 0.976-1.508 0.976-0.333 0-0.604 0.175-0.604 0.39 0 0.214-0.352 0.39-0.781 0.39s-0.78 0.176-0.78 0.39c0 0.215-0.352 0.391-0.781 0.391s-0.78 0.175-0.78 0.39c0 0.214-0.318 0.39-0.707 0.39s-1.084 0.351-1.545 0.781c-0.461 0.429-1.108 0.78-1.439 0.78s-0.602 0.176-0.602 0.39c0 0.215-0.351 0.391-0.781 0.391-0.429 0-0.78 0.175-0.78 0.39 0 0.214-0.357 0.39-0.793 0.39s-0.894 0.263-1.017 0.585c-0.124 0.322-0.518 0.586-0.877 0.586s-0.906 0.351-1.215 0.78c-0.31 0.43-0.875 0.781-1.257 0.781s-0.695 0.175-0.695 0.39-0.351 0.39-0.78 0.39-0.781 0.176-0.781 0.39c0 0.215-0.439 0.391-0.975 0.391-0.537 0-0.976 0.175-0.976 0.39s-0.276 0.39-0.613 0.39c-1.659 0-1.694 0.336-1.719 16.551l-0.025 15.469 0.966 0.966c0.531 0.531 1.237 0.965 1.568 0.965 0.332 0 0.604 0.176 0.604 0.391 0 0.214 0.263 0.39 0.585 0.39s0.585 0.263 0.585 0.585c0 0.325 0.347 0.586 0.781 0.586 0.429 0 0.78 0.175 0.78 0.39s0.352 0.39 0.781 0.39 0.78 0.176 0.78 0.39c0 0.215 0.351 0.391 0.781 0.391 0.429 0 0.78 0.175 0.78 0.39 0 0.214 0.364 0.39 0.809 0.39 0.444 0 1.059 0.251 1.365 0.558 0.818 0.817 0.691 1.784-0.235 1.784-0.436 0-0.894 0.263-1.017 0.585-0.124 0.322-0.557 0.585-0.964 0.585-0.406 0-0.738 0.176-0.738 0.391 0 0.214-0.351 0.39-0.781 0.39-0.429 0-0.78 0.175-0.78 0.39s-0.313 0.39-0.695 0.39c-0.381 0-0.947 0.351-1.256 0.781-0.31 0.429-0.963 0.78-1.452 0.78-0.49 0-0.89 0.176-0.89 0.39 0 0.215-0.351 0.391-0.78 0.391-0.43 0-0.781 0.175-0.781 0.39s-0.351 0.39-0.78 0.39c-0.43 0-0.781 0.176-0.781 0.39 0 0.215-0.351 0.391-0.78 0.391-0.434 0-0.781 0.26-0.781 0.585 0 0.322-0.263 0.585-0.585 0.585s-0.586 0.176-0.586 0.391c0 0.214-0.351 0.39-0.78 0.39s-0.781 0.176-0.781 0.39c0 0.215-0.351 0.39-0.78 0.39s-0.781 0.176-0.781 0.391c0 0.214-0.351 0.39-0.78 0.39s-0.78 0.176-0.78 0.39c0 0.215-0.319 0.39-0.707 0.39-0.389 0-1.084 0.352-1.545 0.781s-1.109 0.78-1.439 0.78c-0.331 0-0.602 0.176-0.602 0.391 0 0.214-0.351 0.39-0.781 0.39-0.433 0-0.78 0.26-0.78 0.585 0 0.322-0.157 0.586-0.349 0.586-0.191 0-0.449-0.264-0.573-0.586-0.123-0.322-0.581-0.585-1.017-0.585s-0.793-0.176-0.793-0.39c0-0.215-0.312-0.391-0.694-0.391s-0.948-0.351-1.257-0.78-0.875-0.781-1.257-0.781-0.694-0.175-0.694-0.39c0-0.214-0.439-0.39-0.976-0.39-0.536 0-0.976-0.176-0.976-0.39 0-0.215-0.351-0.391-0.78-0.391s-0.78-0.175-0.78-0.39c0-0.214-0.313-0.39-0.695-0.39s-0.952-0.36-1.268-0.799c-0.611-0.852-2.494-1.933-3.366-1.933-0.289 0-0.525-0.175-0.525-0.39s-0.351-0.39-0.781-0.39c-0.429 0-0.78-0.176-0.78-0.391 0-0.214-0.313-0.39-0.694-0.39-0.382 0-0.948-0.351-1.257-0.78-0.31-0.43-0.963-0.781-1.452-0.781-0.49 0-0.89-0.175-0.89-0.39s-0.351-0.39-0.78-0.39c-0.43 0-0.781-0.176-0.781-0.39 0-0.215-0.351-0.391-0.78-0.391-0.434 0-0.781-0.26-0.781-0.585s-0.347-0.585-0.78-0.585c-0.45 0-0.781-0.261-0.781-0.614 0-0.788 0.94-1.728 1.728-1.728 0.338 0 0.614-0.176 0.614-0.39 0-0.215 0.351-0.39 0.78-0.39s0.781-0.176 0.781-0.391c0-0.214 0.236-0.39 0.525-0.39 0.871 0 2.754-1.081 3.366-1.932 0.315-0.44 0.806-0.8 1.091-0.8 0.284 0 0.948-0.431 1.474-0.957l0.958-0.958v-13.049c0-11.24 0.082-13.081 0.586-13.274 1.941-0.745 0.24-5.713-1.956-5.713-0.534 0-0.971-0.175-0.971-0.39s-0.351-0.39-0.781-0.39c-0.429 0-0.78-0.176-0.78-0.391 0-0.214-0.351-0.39-0.781-0.39-0.429 0-0.78-0.175-0.78-0.39s-0.439-0.39-0.976-0.39c-0.536 0-0.975-0.176-0.975-0.391 0-0.214-0.313-0.39-0.695-0.39s-0.952-0.359-1.268-0.799c-0.611-0.851-2.494-1.932-3.366-1.932-0.289 0-0.525-0.176-0.525-0.391 0-0.214-0.312-0.39-0.694-0.39s-0.948-0.351-1.257-0.78c-0.31-0.43-0.875-0.781-1.257-0.781s-0.694-0.176-0.694-0.39c0-0.215-0.352-0.39-0.781-0.39s-0.78-0.176-0.78-0.391c0-0.214-0.439-0.39-0.976-0.39s-0.976-0.176-0.976-0.39c0-0.215-0.351-0.39-0.78-0.39s-0.781-0.231-0.781-0.513c0-1.794-6.663-3.022-7.804-1.439-0.31 0.43-0.875 0.781-1.257 0.781s-0.695 0.263-0.695 0.585c0 0.364-0.368 0.586-0.975 0.586-0.537 0-0.976 0.175-0.976 0.39 0 0.214-0.351 0.39-0.78 0.39-0.758 0-0.781-0.26-0.781-9.003 0-9.398 0.123-10.119 1.728-10.119 0.338 0 0.614-0.263 0.614-0.585 0-0.349 0.359-0.586 0.889-0.586 0.489 0 1.143-0.351 1.452-0.78s0.875-0.781 1.257-0.781 0.694-0.175 0.694-0.39c0-0.214 0.352-0.39 0.781-0.39s0.78-0.176 0.78-0.39c0-0.215 0.351-0.391 0.781-0.391 0.429 0 0.78-0.175 0.78-0.39 0-0.214 0.318-0.39 0.707-0.39s1.084-0.351 1.545-0.781c0.461-0.429 1.108-0.78 1.439-0.78s0.602-0.263 0.602-0.585c0-0.326 0.347-0.586 0.78-0.586 0.43 0 0.781-0.175 0.781-0.39s0.439-0.39 0.976-0.39c0.536 0 0.975-0.176 0.975-0.39 0-0.215 0.313-0.391 0.694-0.391 0.382 0 0.948-0.351 1.257-0.78 0.31-0.429 0.875-0.781 1.257-0.781s0.695-0.175 0.695-0.39 0.263-0.39 0.585-0.39c0.488 0 0.585 0.792 0.585 4.792m-13.658 31.11c0 0.215 0.42 0.391 0.934 0.391 0.513 0 1.035 0.263 1.158 0.585 0.124 0.322 0.494 0.585 0.822 0.585 0.329 0 0.598 0.176 0.598 0.39 0 0.215 0.351 0.391 0.78 0.391 0.43 0 0.781 0.175 0.781 0.39s0.4 0.39 0.889 0.39c0.49 0 1.143 0.351 1.452 0.781 0.31 0.429 0.875 0.78 1.257 0.78s0.695 0.176 0.695 0.39c0 0.215 0.351 0.391 0.78 0.391s0.781 0.175 0.781 0.39 0.351 0.39 0.78 0.39 0.781 0.176 0.781 0.39c0 0.215 0.263 0.391 0.585 0.391s0.585 0.263 0.585 0.585c0 0.325 0.347 0.585 0.781 0.585 0.429 0 0.78 0.176 0.78 0.391 0 0.214-0.351 0.39-0.78 0.39s-0.781 0.175-0.781 0.39-0.4 0.39-0.889 0.39-1.143 0.352-1.452 0.781c-0.31 0.429-0.875 0.78-1.257 0.78s-0.694 0.176-0.694 0.391c0 0.214-0.352 0.39-0.781 0.39s-0.78 0.175-0.78 0.39-0.357 0.39-0.793 0.39-0.894 0.264-1.017 0.586c-0.124 0.322-0.558 0.585-0.964 0.585s-0.739 0.176-0.739 0.39c0 0.215-0.351 0.391-0.78 0.391s-0.781 0.175-0.781 0.39c0 0.214-0.351 0.39-0.78 0.39s-0.781 0.176-0.781 0.39c0 0.215-0.248 0.391-0.552 0.391s-0.656 0.219-0.781 0.487c-0.182 0.391-0.273 0.391-0.455 0-0.125-0.268-0.564-0.487-0.976-0.487-0.411 0-0.748-0.176-0.748-0.391 0-0.214-0.351-0.39-0.78-0.39s-0.781-0.176-0.781-0.39c0-0.215-0.439-0.39-0.975-0.39-0.537 0-0.976-0.176-0.976-0.391 0-0.214-0.351-0.39-0.78-0.39-0.434 0-0.781-0.26-0.781-0.585 0-0.326-0.347-0.586-0.78-0.586-0.43 0-0.781-0.175-0.781-0.39s-0.271-0.39-0.602-0.39c-0.33 0-0.983-0.356-1.449-0.79-0.467-0.435-1.081-0.701-1.365-0.592s-0.616-0.063-0.738-0.381-0.554-0.579-0.961-0.579c-0.406 0-0.739-0.175-0.739-0.39s-0.351-0.39-0.78-0.39-0.78-0.176-0.78-0.39c0-0.215 0.268-0.391 0.597-0.391s0.699-0.263 0.822-0.585c0.124-0.322 0.519-0.585 0.878-0.585 0.358 0 0.905-0.352 1.215-0.781 0.309-0.429 0.963-0.78 1.452-0.78s0.889-0.176 0.889-0.391c0-0.214 0.351-0.39 0.781-0.39 0.429 0 0.78-0.175 0.78-0.39s0.313-0.39 0.694-0.39c0.382 0 0.948-0.352 1.257-0.781 0.31-0.429 0.865-0.78 1.234-0.78s0.78-0.176 0.913-0.391c0.132-0.214 0.582-0.39 0.998-0.39 0.417 0 0.758-0.263 0.758-0.585 0-0.325 0.347-0.585 0.78-0.585 0.43 0 0.781-0.176 0.781-0.391 0-0.214 0.351-0.39 0.78-0.39 0.43 0 0.781 0.176 0.781 0.39m83.902 0c0 0.215 0.439 0.391 0.976 0.391 0.607 0 0.975 0.221 0.975 0.585 0 0.325 0.347 0.585 0.781 0.585 0.429 0 0.78 0.176 0.78 0.39 0 0.215 0.313 0.391 0.695 0.391s0.947 0.351 1.257 0.78c0.309 0.429 0.864 0.781 1.233 0.781 0.37 0 0.78 0.175 0.913 0.39s0.582 0.39 0.999 0.39c0.416 0 0.757 0.176 0.757 0.39 0 0.215 0.351 0.391 0.781 0.391 0.429 0 0.78 0.175 0.78 0.39s0.31 0.39 0.688 0.39 1.017 0.439 1.42 0.976c0.403 0.536 1.06 0.975 1.459 0.975s0.726 0.176 0.726 0.391c0 0.214-0.439 0.39-0.976 0.39-0.536 0-0.976 0.175-0.976 0.39s-0.351 0.39-0.78 0.39-0.78 0.176-0.78 0.391c0 0.214-0.352 0.39-0.781 0.39s-0.78 0.175-0.78 0.39-0.271 0.39-0.602 0.39-0.979 0.352-1.44 0.781c-0.46 0.429-1.155 0.78-1.544 0.78s-0.707 0.264-0.707 0.586c0 0.325-0.347 0.585-0.781 0.585-0.429 0-0.78 0.176-0.78 0.39 0 0.215-0.351 0.391-0.781 0.391-0.429 0-0.78 0.175-0.78 0.39 0 0.214-0.341 0.39-0.758 0.39-0.416 0-0.866 0.176-0.998 0.39-0.133 0.215-0.568 0.391-0.966 0.391-0.399 0-0.804 0.219-0.9 0.487-0.119 0.331-0.427 0.206-0.957-0.39-0.429-0.483-1.057-0.878-1.395-0.878s-0.723-0.176-0.855-0.39c-0.133-0.215-0.582-0.39-0.999-0.39s-0.757-0.176-0.757-0.391c0-0.214-0.352-0.39-0.781-0.39-0.434 0-0.78-0.26-0.78-0.585 0-0.326-0.347-0.586-0.781-0.586-0.429 0-0.78-0.175-0.78-0.39s-0.439-0.39-0.976-0.39-0.976-0.176-0.976-0.39c0-0.215-0.312-0.391-0.694-0.391s-0.947-0.351-1.257-0.78c-0.309-0.429-0.875-0.781-1.257-0.781s-0.694-0.175-0.694-0.39-0.351-0.39-0.781-0.39c-0.429 0-0.78-0.176-0.78-0.39 0-0.215 0.239-0.391 0.531-0.391s0.86-0.439 1.263-0.975c0.403-0.537 1.042-0.976 1.421-0.976 0.378 0 0.687-0.175 0.687-0.39s0.352-0.39 0.781-0.39 0.78-0.176 0.78-0.391c0-0.214 0.401-0.39 0.89-0.39s1.142-0.351 1.452-0.78c0.309-0.43 0.875-0.781 1.257-0.781s0.694-0.175 0.694-0.39 0.351-0.39 0.781-0.39c0.429 0 0.78-0.176 0.78-0.391 0-0.214 0.357-0.39 0.793-0.39s0.894-0.263 1.017-0.585c0.124-0.322 0.557-0.585 0.963-0.585 0.407 0 0.739-0.176 0.739-0.391 0-0.214 0.351-0.39 0.781-0.39 0.429 0 0.78 0.176 0.78 0.39m-102.63 16.046c0 0.189 0.351 0.345 0.781 0.345 0.429 0 0.78 0.175 0.78 0.39 0 0.214 0.351 0.39 0.781 0.39 0.429 0 0.78 0.176 0.78 0.39 0 0.215 0.351 0.39 0.78 0.39 0.43 0 0.781 0.176 0.781 0.391 0 0.214 0.4 0.39 0.889 0.39 0.49 0 1.143 0.351 1.452 0.78 0.31 0.43 0.857 0.781 1.216 0.781 0.358 0 0.753 0.263 0.877 0.585 0.123 0.322 0.493 0.586 0.822 0.586s0.598 0.175 0.598 0.39 0.351 0.39 0.78 0.39 0.781 0.176 0.781 0.39c0 0.215 0.363 0.391 0.808 0.391 1.814 0 1.923 0.555 1.923 9.728v8.613h-0.975c-0.537 0-0.976-0.175-0.976-0.39s-0.351-0.39-0.78-0.39c-0.43 0-0.781-0.176-0.781-0.391 0-0.214-0.351-0.39-0.78-0.39-0.434 0-0.781-0.26-0.781-0.585 0-0.322-0.271-0.586-0.602-0.586-0.33 0-0.978-0.351-1.439-0.78s-1.156-0.781-1.545-0.781c-0.388 0-0.707-0.175-0.707-0.39 0-0.214-0.351-0.39-0.78-0.39s-0.781-0.176-0.781-0.39c0-0.215-0.351-0.391-0.78-0.391s-0.78-0.175-0.78-0.39c0-0.214-0.352-0.39-0.781-0.39s-0.78-0.176-0.78-0.39c0-0.215-0.264-0.391-0.586-0.391s-0.585-0.175-0.585-0.39c0-0.214-0.351-0.39-0.781-0.39-0.757 0-0.78-0.26-0.78-8.921v-8.922l0.975 0.187c0.537 0.102 0.976 0.341 0.976 0.531m83.512 0c0 0.189 0.439 0.345 0.976 0.345 0.536 0 0.975 0.175 0.975 0.39 0 0.214 0.352 0.39 0.781 0.39s0.78 0.176 0.78 0.39c0 0.215 0.313 0.39 0.695 0.39s0.947 0.352 1.257 0.781c0.309 0.429 0.962 0.78 1.452 0.78 0.489 0 0.889 0.176 0.889 0.391 0 0.214 0.351 0.39 0.781 0.39 0.433 0 0.78 0.26 0.78 0.585 0 0.326 0.347 0.586 0.781 0.586 0.429 0 0.78 0.175 0.78 0.39s0.351 0.39 0.781 0.39c0.429 0 0.78 0.146 0.78 0.324 0 0.179 0.439 0.56 0.976 0.847l0.975 0.522v9.165c0 8.987-0.014 9.148-0.728 8.324-0.401-0.462-1.016-0.84-1.366-0.84-0.351 0-0.637-0.176-0.637-0.391 0-0.214-0.333-0.39-0.739-0.39s-0.84-0.263-0.964-0.585c-0.123-0.322-0.581-0.586-1.017-0.586s-0.793-0.175-0.793-0.39c0-0.214-0.312-0.39-0.694-0.39s-0.947-0.351-1.257-0.781c-0.309-0.429-0.875-0.78-1.257-0.78s-0.694-0.176-0.694-0.39c0-0.215-0.351-0.391-0.781-0.391-0.429 0-0.78-0.175-0.78-0.39 0-0.214-0.439-0.39-0.976-0.39-0.536 0-0.975-0.176-0.975-0.39 0-0.215-0.276-0.391-0.614-0.391-1.599 0-1.728-0.735-1.728-9.886 0-8.58 0.017-8.768 0.781-8.568 0.429 0.112 0.78 0.359 0.78 0.549m-45.658 8.177c0 8.984-0.133 9.728-1.729 9.728-0.337 0-0.613 0.176-0.613 0.391 0 0.214-0.351 0.39-0.78 0.39-0.43 0-0.781 0.176-0.781 0.39 0 0.215-0.351 0.39-0.78 0.39s-0.781 0.176-0.781 0.391c0 0.214-0.4 0.39-0.889 0.39s-1.143 0.351-1.452 0.78c-0.31 0.43-0.875 0.781-1.257 0.781s-0.694 0.176-0.694 0.39c0 0.215-0.352 0.39-0.781 0.39-0.433 0-0.78 0.261-0.78 0.586 0 0.349-0.359 0.585-0.89 0.585-0.489 0-1.142 0.351-1.452 0.781-1.696 2.353-1.951 1.33-1.951-7.823v-8.603l0.958-0.958c0.527-0.527 1.229-0.958 1.561-0.958s0.603-0.175 0.603-0.39 0.357-0.39 0.793-0.39 0.893-0.264 1.017-0.586 0.557-0.585 0.963-0.585c0.407 0 0.739-0.176 0.739-0.39 0-0.215 0.313-0.391 0.694-0.391 0.382 0 0.948-0.351 1.257-0.78 0.31-0.429 0.963-0.781 1.452-0.781 0.49 0 0.89-0.175 0.89-0.39 0-0.214 0.351-0.39 0.78-0.39 0.43 0 0.781-0.176 0.781-0.39 0-0.215 0.351-0.39 0.78-0.39 0.43 0 0.781-0.176 0.781-0.391 0-0.214 0.351-0.39 0.78-0.39 0.757 0 0.781 0.26 0.781 8.613m83.902 0.168c0 8.157-0.049 8.78-0.694 8.78-0.382 0-0.948 0.351-1.257 0.78-0.309 0.43-0.875 0.781-1.257 0.781s-0.694 0.176-0.694 0.39c0 0.215-0.439 0.39-0.976 0.39-0.536 0-0.976 0.176-0.976 0.391 0 0.214-0.351 0.39-0.78 0.39s-0.78 0.176-0.78 0.39c0 0.215-0.313 0.39-0.695 0.39s-0.947 0.352-1.257 0.781c-0.309 0.429-0.88 0.78-1.269 0.78-0.388 0-0.808 0.264-0.931 0.586-0.124 0.322-0.557 0.585-0.963 0.585-0.407 0-0.739 0.176-0.739 0.39 0 0.215-0.351 0.391-0.781 0.391-0.429 0-0.78 0.175-0.78 0.39s-0.351 0.39-0.781 0.39c-0.757 0-0.78-0.26-0.78-8.613 0-8.984 0.132-9.728 1.728-9.728 0.337 0 0.613-0.176 0.613-0.391 0-0.214 0.352-0.39 0.781-0.39s0.78-0.175 0.78-0.39 0.352-0.39 0.781-0.39c0.433 0 0.78-0.26 0.78-0.586 0-0.349 0.359-0.585 0.89-0.585 0.489 0 1.142-0.351 1.452-0.781 0.309-0.429 0.875-0.78 1.257-0.78s0.694-0.176 0.694-0.39c0-0.215 0.351-0.391 0.78-0.391 0.43 0 0.781-0.175 0.781-0.39 0-0.214 0.341-0.39 0.757-0.39 0.417 0 0.866-0.176 0.999-0.39 0.133-0.215 0.582-0.39 0.999-0.39 0.416 0 0.757-0.176 0.757-0.391 0-0.214 0.351-0.39 0.781-0.39 0.757 0 0.78 0.26 0.78 8.781"/>
</g>
</svg> 
